solid Created by Gmsh
facet normal 0 0 1
  outer loop
    vertex -0.003917468245269452 -0.001875000000000001 0
    vertex -0.003959004857786097 -0.003120678220966786 0
    vertex -0.002646672502010371 -0.002709339938931858 0
  endloop
endfacet
facet normal 0 0 1
  outer loop
    vertex -0.002646672502010371 -0.002709339938931858 0
    vertex -0.002819074669310634 -0.001548089340543053 0
    vertex -0.003917468245269452 -0.001875000000000001 0
  endloop
endfacet
facet normal 0 0 1
  outer loop
    vertex 0.002693967082849719 0.001349708141683975 0
    vertex 0.002935739920822492 1.607652705248602e-06 0
    vertex 0.003889648203047511 0.000650628952987951 0
  endloop
endfacet
facet normal 0 0 1
  outer loop
    vertex -0.002558140994258174 0.00142262856086461 0
    vertex -0.003917468245269452 0.001874999999999998 0
    vertex -0.003787408590474767 0.000688788296333878 0
  endloop
endfacet
facet normal -0 0 1
  outer loop
    vertex -0.003787408590474767 0.000688788296333878 0
    vertex -0.002774226920502807 0.0002655257956968505 0
    vertex -0.002558140994258174 0.00142262856086461 0
  endloop
endfacet
facet normal 0 -0 1
  outer loop
    vertex 0.003889648203047511 0.000650628952987951 0
    vertex 0.003966852599384364 0.00183096199088875 0
    vertex 0.002693967082849719 0.001349708141683975 0
  endloop
endfacet
facet normal 0 0 1
  outer loop
    vertex -0.005 -0.00125 0
    vertex -0.003628769534608675 -0.0006179827632754033 0
    vertex -0.005 -8.673617379884035e-19 0
  endloop
endfacet
facet normal -0 0 1
  outer loop
    vertex 0.001795939510868708 0.0003626268829837526 0
    vertex 0.002935739920822492 1.607652705248602e-06 0
    vertex 0.002693967082849719 0.001349708141683975 0
  endloop
endfacet
facet normal -0 0 1
  outer loop
    vertex -0.005 -8.673617379884035e-19 0
    vertex -0.003628769534608675 -0.0006179827632754033 0
    vertex -0.003787408590474767 0.000688788296333878 0
  endloop
endfacet
facet normal 0 -0 1
  outer loop
    vertex -0.003917468245269452 -0.001875000000000001 0
    vertex -0.003628769534608675 -0.0006179827632754033 0
    vertex -0.005 -0.00125 0
  endloop
endfacet
facet normal 0 0 1
  outer loop
    vertex 0.002693967082849719 0.001349708141683975 0
    vertex 0.003966852599384364 0.00183096199088875 0
    vertex 0.003095176733119562 0.002606206627927672 0
  endloop
endfacet
facet normal 0 0 1
  outer loop
    vertex -0.002646672502010371 -0.002709339938931858 0
    vertex -0.003959004857786097 -0.003120678220966786 0
    vertex -0.003119703288398904 -0.00394153494368021 0
  endloop
endfacet
facet normal 0 -0 1
  outer loop
    vertex 0.003119703288398904 -0.00394153494368021 0
    vertex 0.003856347301233723 -0.003033380124268111 0
    vertex 0.002507832785078501 -0.002946447060477255 0
  endloop
endfacet
facet normal 0 0 1
  outer loop
    vertex -0.003787408590474767 0.000688788296333878 0
    vertex -0.003628769534608675 -0.0006179827632754033 0
    vertex -0.002774226920502807 0.0002655257956968505 0
  endloop
endfacet
facet normal -0 0 1
  outer loop
    vertex -0.003628769534608675 -0.0006179827632754033 0
    vertex -0.002301739183979572 -0.0006545468591223245 0
    vertex -0.002774226920502807 0.0002655257956968505 0
  endloop
endfacet
facet normal 0 0 1
  outer loop
    vertex 0.003856347301233723 -0.003033380124268111 0
    vertex 0.00305215725552528 -0.002123762598584619 0
    vertex 0.002507832785078501 -0.002946447060477255 0
  endloop
endfacet
facet normal 0 -0 1
  outer loop
    vertex -0.002819074669310634 -0.001548089340543053 0
    vertex -0.002301739183979572 -0.0006545468591223245 0
    vertex -0.003628769534608675 -0.0006179827632754033 0
  endloop
endfacet
facet normal 0 0 1
  outer loop
    vertex -0.002558140994258174 0.00142262856086461 0
    vertex -0.002923274738967986 0.002437104548682605 0
    vertex -0.003917468245269452 0.001874999999999998 0
  endloop
endfacet
facet normal 0 -0 1
  outer loop
    vertex -0.002646672502010371 -0.002709339938931858 0
    vertex -0.001739274131898183 -0.001776041560479642 0
    vertex -0.002819074669310634 -0.001548089340543053 0
  endloop
endfacet
facet normal 0 0 1
  outer loop
    vertex -0.003917468245269452 -0.001875000000000001 0
    vertex -0.002819074669310634 -0.001548089340543053 0
    vertex -0.003628769534608675 -0.0006179827632754033 0
  endloop
endfacet
facet normal 0 0 1
  outer loop
    vertex 0.005 -0.001249999999999999 0
    vertex 0.003959570073499049 -0.001802077494414799 0
    vertex 0.005 -0.0025 0
  endloop
endfacet
facet normal -0 0 1
  outer loop
    vertex 0.001249999999999999 0.005 0
    vertex 0.001875 0.003917468245269451 0
    vertex 0.0025 0.005 0
  endloop
endfacet
facet normal 0 0 1
  outer loop
    vertex -0.001874117214733149 -0.003921479361671245 0
    vertex -0.002646672502010371 -0.002709339938931858 0
    vertex -0.003119703288398904 -0.00394153494368021 0
  endloop
endfacet
facet normal 0 -0 1
  outer loop
    vertex -0.0025 -0.005 0
    vertex -0.001874117214733149 -0.003921479361671245 0
    vertex -0.003119703288398904 -0.00394153494368021 0
  endloop
endfacet
facet normal 0 0 1
  outer loop
    vertex 0.0025 -0.005 0
    vertex 0.001875000000000001 -0.003917468245269452 0
    vertex 0.00125 -0.005 0
  endloop
endfacet
facet normal -0 0 1
  outer loop
    vertex -0.0025 0.005 0
    vertex -0.001871891340151973 0.003955068139135622 0
    vertex -0.00125 0.005 0
  endloop
endfacet
facet normal -0 0 1
  outer loop
    vertex -0.005 0.0025 0
    vertex -0.003917468245269452 0.001874999999999998 0
    vertex -0.003792304632363123 0.003130906423764602 0
  endloop
endfacet
facet normal 0 0 1
  outer loop
    vertex -0.005 -0.0025 0
    vertex -0.003917468245269452 -0.001875000000000001 0
    vertex -0.005 -0.00125 0
  endloop
endfacet
facet normal 0 0 1
  outer loop
    vertex 0.005 8.673617379884035e-19 0
    vertex 0.003917468245269451 -0.000625 0
    vertex 0.005 -0.001249999999999999 0
  endloop
endfacet
facet normal -0 0 1
  outer loop
    vertex 0.0006249999999999993 0.003917468245269453 0
    vertex 0.001875 0.003917468245269451 0
    vertex 0.001249999999999999 0.005 0
  endloop
endfacet
facet normal -0 0 1
  outer loop
    vertex -0.001871891340151973 0.003955068139135622 0
    vertex -0.0006250000000000002 0.003917468245269453 0
    vertex -0.00125 0.005 0
  endloop
endfacet
facet normal 0 0 1
  outer loop
    vertex 0.003917468245269451 -0.000625 0
    vertex 0.002977576152662751 -0.001151373341914581 0
    vertex 0.003959570073499049 -0.001802077494414799 0
  endloop
endfacet
facet normal 0 0 1
  outer loop
    vertex 0.002507832785078501 -0.002946447060477255 0
    vertex 0.001238127890240567 -0.002863388879264316 0
    vertex 0.001875000000000001 -0.003917468245269452 0
  endloop
endfacet
facet normal 0 -0 1
  outer loop
    vertex 0.000618286804796886 -0.001763521653580027 0
    vertex 0.00117326025034949 -0.0006697178169769191 0
    vertex 4.354504970314428e-06 -0.0006749047649320789 0
  endloop
endfacet
facet normal 0 0 1
  outer loop
    vertex 4.354504970314428e-06 -0.0006749047649320789 0
    vertex 0.00117326025034949 -0.0006697178169769191 0
    vertex 0.0006348925473994786 0.0004148925921549077 0
  endloop
endfacet
facet normal -0 0 1
  outer loop
    vertex 0.0006348925473994786 0.0004148925921549077 0
    vertex 0.001795939510868708 0.0003626268829837526 0
    vertex 0.001251760893016199 0.001495673400044035 0
  endloop
endfacet
facet normal 0 0 1
  outer loop
    vertex 1.08155544710064e-05 0.001498635280611529 0
    vertex -0.0006249999999999965 0.002577722283113834 0
    vertex -0.001204645626155092 0.001518689283165352 0
  endloop
endfacet
facet normal 0 -0 1
  outer loop
    vertex 0.001795939510868708 0.0003626268829837526 0
    vertex 0.002693967082849719 0.001349708141683975 0
    vertex 0.001251760893016199 0.001495673400044035 0
  endloop
endfacet
facet normal 0 0 1
  outer loop
    vertex -0.0025 -0.005 0
    vertex -0.003119703288398904 -0.00394153494368021 0
    vertex -0.00375 -0.005 0
  endloop
endfacet
facet normal 0 0 1
  outer loop
    vertex -0.001249999999999999 -0.005 0
    vertex -0.001874117214733149 -0.003921479361671245 0
    vertex -0.0025 -0.005 0
  endloop
endfacet
facet normal 0 -0 1
  outer loop
    vertex 8.673617379884035e-19 -0.005 0
    vertex 0.0006257671478116935 -0.003917927368635829 0
    vertex -0.0006249999999999987 -0.003917468245269453 0
  endloop
endfacet
facet normal 0 0 1
  outer loop
    vertex 0.003889648203047511 0.000650628952987951 0
    vertex 0.003917468245269451 -0.000625 0
    vertex 0.005 8.673617379884035e-19 0
  endloop
endfacet
facet normal -0 0 1
  outer loop
    vertex 0.0025 0.005 0
    vertex 0.003132978325676337 0.003851691073164188 0
    vertex 0.00375 0.005 0
  endloop
endfacet
facet normal 0 0 1
  outer loop
    vertex -8.673617379884035e-19 0.005 0
    vertex -0.0006250000000000002 0.003917468245269453 0
    vertex 0.0006249999999999993 0.003917468245269453 0
  endloop
endfacet
facet normal 0 0 1
  outer loop
    vertex -0.005 0.0025 0
    vertex -0.003792304632363123 0.003130906423764602 0
    vertex -0.005 0.00375 0
  endloop
endfacet
facet normal 0 0 1
  outer loop
    vertex -0.005 0.001249999999999999 0
    vertex -0.003917468245269452 0.001874999999999998 0
    vertex -0.005 0.0025 0
  endloop
endfacet
facet normal 0 -0 1
  outer loop
    vertex -0.0006249999999999987 -0.003917468245269453 0
    vertex 4.602886870158932e-06 -0.002837691230737171 0
    vertex -0.001222382678779052 -0.002851464931728504 0
  endloop
endfacet
facet normal -0 0 1
  outer loop
    vertex -0.0006249999999999987 -0.003917468245269453 0
    vertex 0.0006257671478116935 -0.003917927368635829 0
    vertex 4.602886870158932e-06 -0.002837691230737171 0
  endloop
endfacet
facet normal 0 0 1
  outer loop
    vertex 0.000618286804796886 -0.001763521653580027 0
    vertex 4.354504970314428e-06 -0.0006749047649320789 0
    vertex -0.0005921597749750098 -0.001771478521162302 0
  endloop
endfacet
facet normal 0 0 1
  outer loop
    vertex 4.354504970314428e-06 -0.0006749047649320789 0
    vertex -0.001130659737582914 -0.000673346109616673 0
    vertex -0.0005921597749750098 -0.001771478521162302 0
  endloop
endfacet
facet normal 0 -0 1
  outer loop
    vertex 4.354504970314428e-06 -0.0006749047649320789 0
    vertex 0.0006348925473994786 0.0004148925921549077 0
    vertex -0.0005699992205734519 0.0004310934685200272 0
  endloop
endfacet
facet normal 0 -0 1
  outer loop
    vertex 0.0006348925473994786 0.0004148925921549077 0
    vertex 0.001251760893016199 0.001495673400044035 0
    vertex 1.08155544710064e-05 0.001498635280611529 0
  endloop
endfacet
facet normal 0 0 1
  outer loop
    vertex 0.0006348925473994786 0.0004148925921549077 0
    vertex 0.00117326025034949 -0.0006697178169769191 0
    vertex 0.001795939510868708 0.0003626268829837526 0
  endloop
endfacet
facet normal 0 -0 1
  outer loop
    vertex 1.08155544710064e-05 0.001498635280611529 0
    vertex 0.0006250000000000025 0.002577722283113833 0
    vertex -0.0006249999999999965 0.002577722283113834 0
  endloop
endfacet
facet normal 0 0 1
  outer loop
    vertex 0.001875000000000002 0.002577722283113834 0
    vertex 0.0006250000000000025 0.002577722283113833 0
    vertex 0.001251760893016199 0.001495673400044035 0
  endloop
endfacet
facet normal 0 0 1
  outer loop
    vertex 8.673617379884035e-19 -0.005 0
    vertex -0.0006249999999999987 -0.003917468245269453 0
    vertex -0.001249999999999999 -0.005 0
  endloop
endfacet
facet normal 0 0 1
  outer loop
    vertex 0.003750000000000001 -0.005 0
    vertex 0.003119703288398904 -0.00394153494368021 0
    vertex 0.0025 -0.005 0
  endloop
endfacet
facet normal 0 0 1
  outer loop
    vertex 0.005 -0.001249999999999999 0
    vertex 0.003917468245269451 -0.000625 0
    vertex 0.003959570073499049 -0.001802077494414799 0
  endloop
endfacet
facet normal -0 0 1
  outer loop
    vertex -8.673617379884035e-19 0.005 0
    vertex 0.0006249999999999993 0.003917468245269453 0
    vertex 0.001249999999999999 0.005 0
  endloop
endfacet
facet normal 0 0 1
  outer loop
    vertex -0.005 -8.673617379884035e-19 0
    vertex -0.003787408590474767 0.000688788296333878 0
    vertex -0.005 0.001249999999999999 0
  endloop
endfacet
facet normal 0 0 1
  outer loop
    vertex 4.602886870158932e-06 -0.002837691230737171 0
    vertex -0.0005921597749750098 -0.001771478521162302 0
    vertex -0.001222382678779052 -0.002851464931728504 0
  endloop
endfacet
facet normal 0 -0 1
  outer loop
    vertex 4.602886870158932e-06 -0.002837691230737171 0
    vertex 0.000618286804796886 -0.001763521653580027 0
    vertex -0.0005921597749750098 -0.001771478521162302 0
  endloop
endfacet
facet normal 0 0 1
  outer loop
    vertex 4.354504970314428e-06 -0.0006749047649320789 0
    vertex -0.0005699992205734519 0.0004310934685200272 0
    vertex -0.001130659737582914 -0.000673346109616673 0
  endloop
endfacet
facet normal 0 0 1
  outer loop
    vertex 1.08155544710064e-05 0.001498635280611529 0
    vertex -0.001204645626155092 0.001518689283165352 0
    vertex -0.0005699992205734519 0.0004310934685200272 0
  endloop
endfacet
facet normal 0 0 1
  outer loop
    vertex -0.0006249999999999965 0.002577722283113834 0
    vertex -0.001858815556886427 0.00250343773263116 0
    vertex -0.001204645626155092 0.001518689283165352 0
  endloop
endfacet
facet normal 0 0 1
  outer loop
    vertex -0.0006249999999999987 -0.003917468245269453 0
    vertex -0.001874117214733149 -0.003921479361671245 0
    vertex -0.001249999999999999 -0.005 0
  endloop
endfacet
facet normal 0 0 1
  outer loop
    vertex 0.00125 -0.005 0
    vertex 0.0006257671478116935 -0.003917927368635829 0
    vertex 8.673617379884035e-19 -0.005 0
  endloop
endfacet
facet normal 0 0 1
  outer loop
    vertex 0.001875000000000001 -0.003917468245269452 0
    vertex 0.0006257671478116935 -0.003917927368635829 0
    vertex 0.00125 -0.005 0
  endloop
endfacet
facet normal 0 -0 1
  outer loop
    vertex 0.0025 -0.005 0
    vertex 0.003119703288398904 -0.00394153494368021 0
    vertex 0.001875000000000001 -0.003917468245269452 0
  endloop
endfacet
facet normal 0 0 1
  outer loop
    vertex 0.005 0.00125 0
    vertex 0.003889648203047511 0.000650628952987951 0
    vertex 0.005 8.673617379884035e-19 0
  endloop
endfacet
facet normal -0 0 1
  outer loop
    vertex -0.00125 0.005 0
    vertex -0.0006250000000000002 0.003917468245269453 0
    vertex -8.673617379884035e-19 0.005 0
  endloop
endfacet
facet normal 0 0 1
  outer loop
    vertex -0.003787408590474767 0.000688788296333878 0
    vertex -0.003917468245269452 0.001874999999999998 0
    vertex -0.005 0.001249999999999999 0
  endloop
endfacet
facet normal 0 0 1
  outer loop
    vertex -0.001222382678779052 -0.002851464931728504 0
    vertex -0.002646672502010371 -0.002709339938931858 0
    vertex -0.001874117214733149 -0.003921479361671245 0
  endloop
endfacet
facet normal 0 0 1
  outer loop
    vertex 0.0006348925473994786 0.0004148925921549077 0
    vertex 1.08155544710064e-05 0.001498635280611529 0
    vertex -0.0005699992205734519 0.0004310934685200272 0
  endloop
endfacet
facet normal 0 0 1
  outer loop
    vertex 0.001251760893016199 0.001495673400044035 0
    vertex 0.0006250000000000025 0.002577722283113833 0
    vertex 1.08155544710064e-05 0.001498635280611529 0
  endloop
endfacet
facet normal 0 0 1
  outer loop
    vertex 0.002693967082849719 0.001349708141683975 0
    vertex 0.001875000000000002 0.002577722283113834 0
    vertex 0.001251760893016199 0.001495673400044035 0
  endloop
endfacet
facet normal 0 0 1
  outer loop
    vertex -0.001858815556886427 0.00250343773263116 0
    vertex -0.002558140994258174 0.00142262856086461 0
    vertex -0.001204645626155092 0.001518689283165352 0
  endloop
endfacet
facet normal 0 0 1
  outer loop
    vertex 0.0025 0.005 0
    vertex 0.001875 0.003917468245269451 0
    vertex 0.003132978325676337 0.003851691073164188 0
  endloop
endfacet
facet normal 0 0 1
  outer loop
    vertex -0.0006249999999999987 -0.003917468245269453 0
    vertex -0.001222382678779052 -0.002851464931728504 0
    vertex -0.001874117214733149 -0.003921479361671245 0
  endloop
endfacet
facet normal 0 0 1
  outer loop
    vertex 0.001875000000000001 -0.003917468245269452 0
    vertex 0.001238127890240567 -0.002863388879264316 0
    vertex 0.0006257671478116935 -0.003917927368635829 0
  endloop
endfacet
facet normal 0 -0 1
  outer loop
    vertex 0.002693967082849719 0.001349708141683975 0
    vertex 0.003095176733119562 0.002606206627927672 0
    vertex 0.001875000000000002 0.002577722283113834 0
  endloop
endfacet
facet normal 0 0 1
  outer loop
    vertex 0.003119703288398904 -0.00394153494368021 0
    vertex 0.002507832785078501 -0.002946447060477255 0
    vertex 0.001875000000000001 -0.003917468245269452 0
  endloop
endfacet
facet normal 0 -0 1
  outer loop
    vertex 0.0006257671478116935 -0.003917927368635829 0
    vertex 0.001238127890240567 -0.002863388879264316 0
    vertex 4.602886870158932e-06 -0.002837691230737171 0
  endloop
endfacet
facet normal -0 0 1
  outer loop
    vertex 4.602886870158932e-06 -0.002837691230737171 0
    vertex 0.001238127890240567 -0.002863388879264316 0
    vertex 0.000618286804796886 -0.001763521653580027 0
  endloop
endfacet
facet normal 0 0 1
  outer loop
    vertex -0.002774226920502807 0.0002655257956968505 0
    vertex -0.001718430109974218 0.0004226528234839741 0
    vertex -0.002558140994258174 0.00142262856086461 0
  endloop
endfacet
facet normal 0 0 1
  outer loop
    vertex 0.005 0.0025 0
    vertex 0.004059210847873639 0.003111060882327976 0
    vertex 0.003966852599384364 0.00183096199088875 0
  endloop
endfacet
facet normal 0 0 1
  outer loop
    vertex -0.003792304632363123 0.003130906423764602 0
    vertex -0.002489644266062751 0.003253550026152655 0
    vertex -0.003081462788186126 0.004070743513265297 0
  endloop
endfacet
facet normal 0 0 1
  outer loop
    vertex 0.003095176733119562 0.002606206627927672 0
    vertex 0.004059210847873639 0.003111060882327976 0
    vertex 0.003132978325676337 0.003851691073164188 0
  endloop
endfacet
facet normal 0 -0 1
  outer loop
    vertex -0.002923274738967986 0.002437104548682605 0
    vertex -0.002489644266062751 0.003253550026152655 0
    vertex -0.003792304632363123 0.003130906423764602 0
  endloop
endfacet
facet normal -0 0 1
  outer loop
    vertex -0.003750000000000001 0.005 0
    vertex -0.003081462788186126 0.004070743513265297 0
    vertex -0.0025 0.005 0
  endloop
endfacet
facet normal 0 0 1
  outer loop
    vertex -0.005 -0.003750000000000001 0
    vertex -0.003959004857786097 -0.003120678220966786 0
    vertex -0.005 -0.0025 0
  endloop
endfacet
facet normal 0 0 1
  outer loop
    vertex 0.005 -0.0025 0
    vertex 0.003856347301233723 -0.003033380124268111 0
    vertex 0.005 -0.00375 0
  endloop
endfacet
facet normal 0 0 1
  outer loop
    vertex 0.000618286804796886 -0.001763521653580027 0
    vertex 0.001965150222261266 -0.00172547622748566 0
    vertex 0.00117326025034949 -0.0006697178169769191 0
  endloop
endfacet
facet normal 0 0 1
  outer loop
    vertex 0.002507832785078501 -0.002946447060477255 0
    vertex 0.001965150222261266 -0.00172547622748566 0
    vertex 0.001238127890240567 -0.002863388879264316 0
  endloop
endfacet
facet normal 0 0 1
  outer loop
    vertex 0.005 0.0025 0
    vertex 0.003966852599384364 0.00183096199088875 0
    vertex 0.005 0.00125 0
  endloop
endfacet
facet normal 0 0 1
  outer loop
    vertex 0.003917468245269451 -0.000625 0
    vertex 0.002935739920822492 1.607652705248602e-06 0
    vertex 0.002977576152662751 -0.001151373341914581 0
  endloop
endfacet
facet normal 0 -0 1
  outer loop
    vertex 0.003966852599384364 0.00183096199088875 0
    vertex 0.004059210847873639 0.003111060882327976 0
    vertex 0.003095176733119562 0.002606206627927672 0
  endloop
endfacet
facet normal 0 0 1
  outer loop
    vertex -0.0025 0.005 0
    vertex -0.003081462788186126 0.004070743513265297 0
    vertex -0.001871891340151973 0.003955068139135622 0
  endloop
endfacet
facet normal -0 0 1
  outer loop
    vertex -0.005 -0.0025 0
    vertex -0.003959004857786097 -0.003120678220966786 0
    vertex -0.003917468245269452 -0.001875000000000001 0
  endloop
endfacet
facet normal 0 0 1
  outer loop
    vertex 0.003959570073499049 -0.001802077494414799 0
    vertex 0.003856347301233723 -0.003033380124268111 0
    vertex 0.005 -0.0025 0
  endloop
endfacet
facet normal 0 0 1
  outer loop
    vertex -0.001718430109974218 0.0004226528234839741 0
    vertex -0.002301739183979572 -0.0006545468591223245 0
    vertex -0.001130659737582914 -0.000673346109616673 0
  endloop
endfacet
facet normal 0 0 1
  outer loop
    vertex -0.001222382678779052 -0.002851464931728504 0
    vertex -0.001739274131898183 -0.001776041560479642 0
    vertex -0.002646672502010371 -0.002709339938931858 0
  endloop
endfacet
facet normal 0 0 1
  outer loop
    vertex -0.001130659737582914 -0.000673346109616673 0
    vertex -0.001739274131898183 -0.001776041560479642 0
    vertex -0.0005921597749750098 -0.001771478521162302 0
  endloop
endfacet
facet normal -0 0 1
  outer loop
    vertex -0.002558140994258174 0.00142262856086461 0
    vertex -0.001718430109974218 0.0004226528234839741 0
    vertex -0.001204645626155092 0.001518689283165352 0
  endloop
endfacet
facet normal 0 0 1
  outer loop
    vertex -0.0005699992205734519 0.0004310934685200272 0
    vertex -0.001718430109974218 0.0004226528234839741 0
    vertex -0.001130659737582914 -0.000673346109616673 0
  endloop
endfacet
facet normal 0 -0 1
  outer loop
    vertex 0.001238127890240567 -0.002863388879264316 0
    vertex 0.001965150222261266 -0.00172547622748566 0
    vertex 0.000618286804796886 -0.001763521653580027 0
  endloop
endfacet
facet normal 0 0 1
  outer loop
    vertex 0.005 -0.00375 0
    vertex 0.004084936490538904 -0.004084936490538903 0
    vertex 0.005 -0.005 0
  endloop
endfacet
facet normal 0 0 1
  outer loop
    vertex 0.005 -0.005 0
    vertex 0.004084936490538904 -0.004084936490538903 0
    vertex 0.003750000000000001 -0.005 0
  endloop
endfacet
facet normal 0 0 1
  outer loop
    vertex -0.00375 -0.005 0
    vertex -0.004084936490538904 -0.004084936490538904 0
    vertex -0.005 -0.005 0
  endloop
endfacet
facet normal 0 0 1
  outer loop
    vertex -0.005 0.00375 0
    vertex -0.004084936490538904 0.004084936490538904 0
    vertex -0.005 0.005 0
  endloop
endfacet
facet normal 0 0 1
  outer loop
    vertex -0.005 -0.005 0
    vertex -0.004084936490538904 -0.004084936490538904 0
    vertex -0.005 -0.003750000000000001 0
  endloop
endfacet
facet normal -0 0 1
  outer loop
    vertex -0.005 0.005 0
    vertex -0.004084936490538904 0.004084936490538904 0
    vertex -0.003750000000000001 0.005 0
  endloop
endfacet
facet normal 0 0 1
  outer loop
    vertex 0.005 0.00125 0
    vertex 0.003966852599384364 0.00183096199088875 0
    vertex 0.003889648203047511 0.000650628952987951 0
  endloop
endfacet
facet normal 0 -0 1
  outer loop
    vertex 0.001965150222261266 -0.00172547622748566 0
    vertex 0.00218881041717539 -0.0005601222416019036 0
    vertex 0.00117326025034949 -0.0006697178169769191 0
  endloop
endfacet
facet normal 0 0 1
  outer loop
    vertex 0.003889648203047511 0.000650628952987951 0
    vertex 0.002935739920822492 1.607652705248602e-06 0
    vertex 0.003917468245269451 -0.000625 0
  endloop
endfacet
facet normal -0 0 1
  outer loop
    vertex 0.00375 0.005 0
    vertex 0.004094051719574391 0.004094051719574392 0
    vertex 0.005 0.005 0
  endloop
endfacet
facet normal 0 0 1
  outer loop
    vertex 0.005 0.005 0
    vertex 0.004094051719574391 0.004094051719574392 0
    vertex 0.005 0.003750000000000001 0
  endloop
endfacet
facet normal 0 -0 1
  outer loop
    vertex 0.002507832785078501 -0.002946447060477255 0
    vertex 0.00305215725552528 -0.002123762598584619 0
    vertex 0.001965150222261266 -0.00172547622748566 0
  endloop
endfacet
facet normal 0 0 1
  outer loop
    vertex -0.001130659737582914 -0.000673346109616673 0
    vertex -0.002301739183979572 -0.0006545468591223245 0
    vertex -0.001739274131898183 -0.001776041560479642 0
  endloop
endfacet
facet normal 0 0 1
  outer loop
    vertex -0.001858815556886427 0.00250343773263116 0
    vertex -0.002923274738967986 0.002437104548682605 0
    vertex -0.002558140994258174 0.00142262856086461 0
  endloop
endfacet
facet normal 0 0 1
  outer loop
    vertex -0.003917468245269452 0.001874999999999998 0
    vertex -0.002923274738967986 0.002437104548682605 0
    vertex -0.003792304632363123 0.003130906423764602 0
  endloop
endfacet
facet normal 0 0 1
  outer loop
    vertex 0.002977576152662751 -0.001151373341914581 0
    vertex 0.00218881041717539 -0.0005601222416019036 0
    vertex 0.001965150222261266 -0.00172547622748566 0
  endloop
endfacet
facet normal 0 0 1
  outer loop
    vertex 0.003959570073499049 -0.001802077494414799 0
    vertex 0.00305215725552528 -0.002123762598584619 0
    vertex 0.003856347301233723 -0.003033380124268111 0
  endloop
endfacet
facet normal 0 0 1
  outer loop
    vertex 0.003132978325676337 0.003851691073164188 0
    vertex 0.002500000000000003 0.003247595264191642 0
    vertex 0.003095176733119562 0.002606206627927672 0
  endloop
endfacet
facet normal 0 0 1
  outer loop
    vertex 0.005 0.003750000000000001 0
    vertex 0.004059210847873639 0.003111060882327976 0
    vertex 0.005 0.0025 0
  endloop
endfacet
facet normal -0 0 1
  outer loop
    vertex -0.002774226920502807 0.0002655257956968505 0
    vertex -0.002301739183979572 -0.0006545468591223245 0
    vertex -0.001718430109974218 0.0004226528234839741 0
  endloop
endfacet
facet normal -0 0 1
  outer loop
    vertex 0.001965150222261266 -0.00172547622748566 0
    vertex 0.00305215725552528 -0.002123762598584619 0
    vertex 0.002977576152662751 -0.001151373341914581 0
  endloop
endfacet
facet normal 0 0 1
  outer loop
    vertex -0.0005921597749750098 -0.001771478521162302 0
    vertex -0.001739274131898183 -0.001776041560479642 0
    vertex -0.001222382678779052 -0.002851464931728504 0
  endloop
endfacet
facet normal 0 0 1
  outer loop
    vertex -0.001204645626155092 0.001518689283165352 0
    vertex -0.001718430109974218 0.0004226528234839741 0
    vertex -0.0005699992205734519 0.0004310934685200272 0
  endloop
endfacet
facet normal 0 0 1
  outer loop
    vertex -0.001739274131898183 -0.001776041560479642 0
    vertex -0.002301739183979572 -0.0006545468591223245 0
    vertex -0.002819074669310634 -0.001548089340543053 0
  endloop
endfacet
facet normal 0 0 1
  outer loop
    vertex -0.003750000000000001 0.005 0
    vertex -0.004084936490538904 0.004084936490538904 0
    vertex -0.003081462788186126 0.004070743513265297 0
  endloop
endfacet
facet normal -0 0 1
  outer loop
    vertex -0.005 -0.003750000000000001 0
    vertex -0.004084936490538904 -0.004084936490538904 0
    vertex -0.003959004857786097 -0.003120678220966786 0
  endloop
endfacet
facet normal 0 0 1
  outer loop
    vertex 0.003856347301233723 -0.003033380124268111 0
    vertex 0.004084936490538904 -0.004084936490538903 0
    vertex 0.005 -0.00375 0
  endloop
endfacet
facet normal 0 0 1
  outer loop
    vertex 0.00117326025034949 -0.0006697178169769191 0
    vertex 0.00218881041717539 -0.0005601222416019036 0
    vertex 0.001795939510868708 0.0003626268829837526 0
  endloop
endfacet
facet normal 0 0 1
  outer loop
    vertex 0.003132978325676337 0.003851691073164188 0
    vertex 0.004094051719574391 0.004094051719574392 0
    vertex 0.00375 0.005 0
  endloop
endfacet
facet normal 0 0 1
  outer loop
    vertex -0.003119703288398904 -0.00394153494368021 0
    vertex -0.004084936490538904 -0.004084936490538904 0
    vertex -0.00375 -0.005 0
  endloop
endfacet
facet normal 0 0 1
  outer loop
    vertex -0.003792304632363123 0.003130906423764602 0
    vertex -0.004084936490538904 0.004084936490538904 0
    vertex -0.005 0.00375 0
  endloop
endfacet
facet normal 0 -0 1
  outer loop
    vertex 0.003750000000000001 -0.005 0
    vertex 0.004084936490538904 -0.004084936490538903 0
    vertex 0.003119703288398904 -0.00394153494368021 0
  endloop
endfacet
facet normal 0 -0 1
  outer loop
    vertex 0.004059210847873639 0.003111060882327976 0
    vertex 0.004094051719574391 0.004094051719574392 0
    vertex 0.003132978325676337 0.003851691073164188 0
  endloop
endfacet
facet normal 0 0 1
  outer loop
    vertex 0.002935739920822492 1.607652705248602e-06 0
    vertex 0.00218881041717539 -0.0005601222416019036 0
    vertex 0.002977576152662751 -0.001151373341914581 0
  endloop
endfacet
facet normal 0 -0 1
  outer loop
    vertex 0.001875000000000002 0.002577722283113834 0
    vertex 0.002500000000000003 0.003247595264191642 0
    vertex 0.001249999999999999 0.003247595264191643 0
  endloop
endfacet
facet normal -0 0 1
  outer loop
    vertex 0.001249999999999999 0.003247595264191643 0
    vertex 0.002500000000000003 0.003247595264191642 0
    vertex 0.001875 0.003917468245269451 0
  endloop
endfacet
facet normal 0 0 1
  outer loop
    vertex 0.0006249999999999993 0.003917468245269453 0
    vertex 0.001249999999999999 0.003247595264191643 0
    vertex 0.001875 0.003917468245269451 0
  endloop
endfacet
facet normal 0 0 1
  outer loop
    vertex -0.001871891340151973 0.003955068139135622 0
    vertex -0.001249999999999997 0.003247595264191642 0
    vertex -0.0006250000000000002 0.003917468245269453 0
  endloop
endfacet
facet normal 0 0 1
  outer loop
    vertex 0.0006249999999999993 0.003917468245269453 0
    vertex 3.803005069305021e-19 0.003247595264191644 0
    vertex 0.001249999999999999 0.003247595264191643 0
  endloop
endfacet
facet normal 0 0 1
  outer loop
    vertex 0.001875 0.003917468245269451 0
    vertex 0.002500000000000003 0.003247595264191642 0
    vertex 0.003132978325676337 0.003851691073164188 0
  endloop
endfacet
facet normal 0 0 1
  outer loop
    vertex -0.0006249999999999965 0.002577722283113834 0
    vertex -0.001249999999999997 0.003247595264191642 0
    vertex -0.001858815556886427 0.00250343773263116 0
  endloop
endfacet
facet normal 0 0 1
  outer loop
    vertex 0.001249999999999999 0.003247595264191643 0
    vertex 3.803005069305021e-19 0.003247595264191644 0
    vertex 0.0006250000000000025 0.002577722283113833 0
  endloop
endfacet
facet normal 0 0 1
  outer loop
    vertex 0.0006250000000000025 0.002577722283113833 0
    vertex 3.803005069305021e-19 0.003247595264191644 0
    vertex -0.0006249999999999965 0.002577722283113834 0
  endloop
endfacet
facet normal -0 0 1
  outer loop
    vertex -0.0006250000000000002 0.003917468245269453 0
    vertex 3.803005069305021e-19 0.003247595264191644 0
    vertex 0.0006249999999999993 0.003917468245269453 0
  endloop
endfacet
facet normal 0 0 1
  outer loop
    vertex 0.003095176733119562 0.002606206627927672 0
    vertex 0.002500000000000003 0.003247595264191642 0
    vertex 0.001875000000000002 0.002577722283113834 0
  endloop
endfacet
facet normal 0 0 1
  outer loop
    vertex 0.001875000000000002 0.002577722283113834 0
    vertex 0.001249999999999999 0.003247595264191643 0
    vertex 0.0006250000000000025 0.002577722283113833 0
  endloop
endfacet
facet normal 0 -0 1
  outer loop
    vertex -0.0006249999999999965 0.002577722283113834 0
    vertex 3.803005069305021e-19 0.003247595264191644 0
    vertex -0.001249999999999997 0.003247595264191642 0
  endloop
endfacet
facet normal 0 0 1
  outer loop
    vertex -0.001249999999999997 0.003247595264191642 0
    vertex 3.803005069305021e-19 0.003247595264191644 0
    vertex -0.0006250000000000002 0.003917468245269453 0
  endloop
endfacet
facet normal 0 0 1
  outer loop
    vertex 0.002977576152662751 -0.001151373341914581 0
    vertex 0.00305215725552528 -0.002123762598584619 0
    vertex 0.003959570073499049 -0.001802077494414799 0
  endloop
endfacet
facet normal 0 0 1
  outer loop
    vertex -0.003081462788186126 0.004070743513265297 0
    vertex -0.004084936490538904 0.004084936490538904 0
    vertex -0.003792304632363123 0.003130906423764602 0
  endloop
endfacet
facet normal 0 0 1
  outer loop
    vertex -0.003959004857786097 -0.003120678220966786 0
    vertex -0.004084936490538904 -0.004084936490538904 0
    vertex -0.003119703288398904 -0.00394153494368021 0
  endloop
endfacet
facet normal -0 0 1
  outer loop
    vertex 0.003119703288398904 -0.00394153494368021 0
    vertex 0.004084936490538904 -0.004084936490538903 0
    vertex 0.003856347301233723 -0.003033380124268111 0
  endloop
endfacet
facet normal 0 0 1
  outer loop
    vertex -0.001249999999999997 0.003247595264191642 0
    vertex -0.002489644266062751 0.003253550026152655 0
    vertex -0.001858815556886427 0.00250343773263116 0
  endloop
endfacet
facet normal 0 0 1
  outer loop
    vertex -0.001871891340151973 0.003955068139135622 0
    vertex -0.002489644266062751 0.003253550026152655 0
    vertex -0.001249999999999997 0.003247595264191642 0
  endloop
endfacet
facet normal 0 0 1
  outer loop
    vertex 0.001795939510868708 0.0003626268829837526 0
    vertex 0.00218881041717539 -0.0005601222416019036 0
    vertex 0.002935739920822492 1.607652705248602e-06 0
  endloop
endfacet
facet normal 0 0 1
  outer loop
    vertex -0.003081462788186126 0.004070743513265297 0
    vertex -0.002489644266062751 0.003253550026152655 0
    vertex -0.001871891340151973 0.003955068139135622 0
  endloop
endfacet
facet normal 0 0 1
  outer loop
    vertex 0.005 0.003750000000000001 0
    vertex 0.004094051719574391 0.004094051719574392 0
    vertex 0.004059210847873639 0.003111060882327976 0
  endloop
endfacet
facet normal 0 0 1
  outer loop
    vertex -0.001858815556886427 0.00250343773263116 0
    vertex -0.002489644266062751 0.003253550026152655 0
    vertex -0.002923274738967986 0.002437104548682605 0
  endloop
endfacet
endsolid Created by Gmsh
