solid Created by Gmsh
facet normal 0 0 1
  outer loop
    vertex -0.002407009203990126 0.004381931874571981 0
    vertex -1.554781295644628e-06 0.004845812589322162 0
    vertex -0.001062499999999993 0.006659696016958068 0
  endloop
endfacet
facet normal 0 0 1
  outer loop
    vertex -0.002876841556691209 -0.006489534353269535 0
    vertex -0.0007649253283596752 -0.005311171876908764 0
    vertex -0.002541823898251595 -0.004250000000000007 0
  endloop
endfacet
facet normal 0 0 1
  outer loop
    vertex -0.001062499999999993 0.006659696016958068 0
    vertex -0.003276560821837088 0.006627265048933342 0
    vertex -0.002407009203990126 0.004381931874571981 0
  endloop
endfacet
facet normal 0 -0 1
  outer loop
    vertex -0.006525506509268692 0.003235897191700581 0
    vertex -0.004690726907366885 0.004938336697116826 0
    vertex -0.006715763898194374 0.005360375867706641 0
  endloop
endfacet
facet normal 0 0 1
  outer loop
    vertex -0.00437053425558838 0.003129094248226091 0
    vertex -0.004690726907366885 0.004938336697116826 0
    vertex -0.006525506509268692 0.003235897191700581 0
  endloop
endfacet
facet normal -0 0 1
  outer loop
    vertex -0.002876841556691209 -0.006489534353269535 0
    vertex -0.001062500000000008 -0.007062893078962321 0
    vertex -0.0007649253283596752 -0.005311171876908764 0
  endloop
endfacet
facet normal 0 0 1
  outer loop
    vertex 0.005043184884839617 -0.006638751732791961 0
    vertex 0.004876904806269648 -0.004461340699146121 0
    vertex 0.003005361183112824 -0.005476155270673907 0
  endloop
endfacet
facet normal -0 0 1
  outer loop
    vertex -0.004249999999999997 0.008500000000000001 0
    vertex -0.003276560821837088 0.006627265048933342 0
    vertex -0.002124999999999993 0.008500000000000001 0
  endloop
endfacet
facet normal -0 0 1
  outer loop
    vertex -0.002407009203990126 0.004381931874571981 0
    vertex -0.0006438441557342722 0.003004231907805947 0
    vertex -1.554781295644628e-06 0.004845812589322162 0
  endloop
endfacet
facet normal 0 0 1
  outer loop
    vertex 0.006680744275636127 -0.003231838489417977 0
    vertex 0.004845979738183271 -0.002183365775259589 0
    vertex 0.004876904806269648 -0.004461340699146121 0
  endloop
endfacet
facet normal 0 0 1
  outer loop
    vertex 0.003005361183112824 -0.005476155270673907 0
    vertex 0.003187499999999995 -0.007185261573061488 0
    vertex 0.005043184884839617 -0.006638751732791961 0
  endloop
endfacet
facet normal 0 0 1
  outer loop
    vertex 0.001089612672805888 -0.00661767603401173 0
    vertex 0.003005361183112824 -0.005476155270673907 0
    vertex 0.001138784067832269 -0.004250000000000015 0
  endloop
endfacet
facet normal 0 -0 1
  outer loop
    vertex 0.001089612672805888 -0.00661767603401173 0
    vertex 0.001138784067832269 -0.004250000000000015 0
    vertex -0.0007649253283596752 -0.005311171876908764 0
  endloop
endfacet
facet normal 0 0 1
  outer loop
    vertex 0.003002869763546604 -0.001101200193801935 0
    vertex 0.001162085981493522 -0.002165130479630998 0
    vertex 0.003095989306048994 -0.003374771756872086 0
  endloop
endfacet
facet normal 0 0 1
  outer loop
    vertex 0.004876904806269648 -0.004461340699146121 0
    vertex 0.004845979738183271 -0.002183365775259589 0
    vertex 0.003095989306048994 -0.003374771756872086 0
  endloop
endfacet
facet normal -0 0 1
  outer loop
    vertex -0.005320658865624737 0.006703746957375225 0
    vertex -0.003276560821837088 0.006627265048933342 0
    vertex -0.004249999999999997 0.008500000000000001 0
  endloop
endfacet
facet normal 0 0 1
  outer loop
    vertex -0.002124999999999993 0.008500000000000001 0
    vertex -0.003276560821837088 0.006627265048933342 0
    vertex -0.001062499999999993 0.006659696016958068 0
  endloop
endfacet
facet normal 0 0 1
  outer loop
    vertex 0.006464435630100612 0.005129505692835603 0
    vertex 0.00523361122129197 0.006794498939997822 0
    vertex 0.004197707326162203 0.005023372671699618 0
  endloop
endfacet
facet normal 0 0 1
  outer loop
    vertex 0.003095989306048994 -0.003374771756872086 0
    vertex 0.001162085981493522 -0.002165130479630998 0
    vertex 0.001138784067832269 -0.004250000000000015 0
  endloop
endfacet
facet normal 0 -0 1
  outer loop
    vertex 0.003095989306048994 -0.003374771756872086 0
    vertex 0.004845979738183271 -0.002183365775259589 0
    vertex 0.003002869763546604 -0.001101200193801935 0
  endloop
endfacet
facet normal 0 0 1
  outer loop
    vertex -0.002541823898251595 -0.004250000000000007 0
    vertex -0.004248753057940069 -0.005081488029501288 0
    vertex -0.002876841556691209 -0.006489534353269535 0
  endloop
endfacet
facet normal -0 0 1
  outer loop
    vertex 0.004197707326162203 0.005023372671699618 0
    vertex 0.005144616944472431 0.003632675475871223 0
    vertex 0.006464435630100612 0.005129505692835603 0
  endloop
endfacet
facet normal 0 -0 1
  outer loop
    vertex 0.003005361183112824 -0.005476155270673907 0
    vertex 0.003095989306048994 -0.003374771756872086 0
    vertex 0.001138784067832269 -0.004250000000000015 0
  endloop
endfacet
facet normal 0 -0 1
  outer loop
    vertex -0.005212845883728915 -0.006741931688027361 0
    vertex -0.004248753057940069 -0.005081488029501288 0
    vertex -0.006659696016958067 -0.005312499999999999 0
  endloop
endfacet
facet normal 0 0 1
  outer loop
    vertex -0.004248753057940069 -0.005081488029501288 0
    vertex -0.005519783606055054 -0.004077261668691657 0
    vertex -0.006659696016958067 -0.005312499999999999 0
  endloop
endfacet
facet normal 0 0 1
  outer loop
    vertex 0.003005361183112824 -0.005476155270673907 0
    vertex 0.004876904806269648 -0.004461340699146121 0
    vertex 0.003095989306048994 -0.003374771756872086 0
  endloop
endfacet
facet normal -0 0 1
  outer loop
    vertex 0.004876904806269648 -0.004461340699146121 0
    vertex 0.006751942469489867 -0.005250732945815678 0
    vertex 0.006680744275636127 -0.003231838489417977 0
  endloop
endfacet
facet normal -0 0 1
  outer loop
    vertex 0.001059605389595483 0.006661367221054319 0
    vertex 0.002099342510763197 0.004955379195103086 0
    vertex 0.003170132337572858 0.006669723241535576 0
  endloop
endfacet
facet normal 0 0 1
  outer loop
    vertex 0.002099342510763197 0.004955379195103086 0
    vertex 0.004197707326162203 0.005023372671699618 0
    vertex 0.003170132337572858 0.006669723241535576 0
  endloop
endfacet
facet normal -0 0 1
  outer loop
    vertex 0.003002869763546604 -0.001101200193801935 0
    vertex 0.004845979738183271 -0.002183365775259589 0
    vertex 0.004819976707768304 -1.231624706063295e-06 0
  endloop
endfacet
facet normal -0 0 1
  outer loop
    vertex -0.0007040381262450724 -0.001071958309413515 0
    vertex 0.001162085981493522 -0.002165130479630998 0
    vertex 0.001140909313375789 -3.574811495016996e-06 0
  endloop
endfacet
facet normal 0 0 1
  outer loop
    vertex 0.006464435630100612 0.005129505692835603 0
    vertex 0.006701091392621334 0.003028929154838078 0
    vertex 0.008500000000000001 0.004249999999999997 0
  endloop
endfacet
facet normal 0 0 1
  outer loop
    vertex -0.008500000000000001 -0.004249999999999997 0
    vertex -0.006659696016958065 -0.003187499999999998 0
    vertex -0.008500000000000001 -0.002124999999999993 0
  endloop
endfacet
facet normal -0 0 1
  outer loop
    vertex -0.008500000000000001 -0.002124999999999993 0
    vertex -0.006659696016958065 -0.003187499999999998 0
    vertex -0.006659696016958068 -0.001062499999999994 0
  endloop
endfacet
facet normal 0 0 1
  outer loop
    vertex 0.008500000000000001 -6.938893903907228e-18 0
    vertex 0.006663204060071077 -0.001069889748236337 0
    vertex 0.008500000000000001 -0.00212500000000001 0
  endloop
endfacet
facet normal -0 0 1
  outer loop
    vertex 6.938893903907228e-18 0.008500000000000001 0
    vertex 0.001059605389595483 0.006661367221054319 0
    vertex 0.00212500000000001 0.008500000000000001 0
  endloop
endfacet
facet normal 0 0 1
  outer loop
    vertex 0.001140909313375789 -3.574811495016996e-06 0
    vertex 0.001162085981493522 -0.002165130479630998 0
    vertex 0.003002869763546604 -0.001101200193801935 0
  endloop
endfacet
facet normal -0 0 1
  outer loop
    vertex -0.008500000000000001 0.00212500000000001 0
    vertex -0.006659696016958067 0.001062500000000006 0
    vertex -0.006525506509268692 0.003235897191700581 0
  endloop
endfacet
facet normal 0 0 1
  outer loop
    vertex -0.008500000000000001 6.938893903907228e-18 0
    vertex -0.006659696016958067 0.001062500000000006 0
    vertex -0.008500000000000001 0.00212500000000001 0
  endloop
endfacet
facet normal 0 0 1
  outer loop
    vertex 0.004819976707768304 -1.231624706063295e-06 0
    vertex 0.004845979738183271 -0.002183365775259589 0
    vertex 0.006663204060071077 -0.001069889748236337 0
  endloop
endfacet
facet normal 0 0 1
  outer loop
    vertex -0.00212500000000001 -0.008500000000000001 0
    vertex -0.002876841556691209 -0.006489534353269535 0
    vertex -0.004250000000000009 -0.008500000000000001 0
  endloop
endfacet
facet normal 0 0 1
  outer loop
    vertex 0.008500000000000001 -0.00212500000000001 0
    vertex 0.006680744275636127 -0.003231838489417977 0
    vertex 0.008500000000000001 -0.004250000000000009 0
  endloop
endfacet
facet normal 0 0 1
  outer loop
    vertex 0.008500000000000001 -0.00212500000000001 0
    vertex 0.006663204060071077 -0.001069889748236337 0
    vertex 0.006680744275636127 -0.003231838489417977 0
  endloop
endfacet
facet normal 0 0 1
  outer loop
    vertex 0.006659696016958067 0.001062499999999992 0
    vertex 0.006663204060071077 -0.001069889748236337 0
    vertex 0.008500000000000001 -6.938893903907228e-18 0
  endloop
endfacet
facet normal -0 0 1
  outer loop
    vertex 0.00212500000000001 0.008500000000000001 0
    vertex 0.003170132337572858 0.006669723241535576 0
    vertex 0.004250000000000009 0.008500000000000001 0
  endloop
endfacet
facet normal 0 0 1
  outer loop
    vertex 0.00212500000000001 0.008500000000000001 0
    vertex 0.001059605389595483 0.006661367221054319 0
    vertex 0.003170132337572858 0.006669723241535576 0
  endloop
endfacet
facet normal 0 0 1
  outer loop
    vertex -0.001062499999999993 0.006659696016958068 0
    vertex 0.001059605389595483 0.006661367221054319 0
    vertex 6.938893903907228e-18 0.008500000000000001 0
  endloop
endfacet
facet normal 0 0 1
  outer loop
    vertex -0.008500000000000001 0.00212500000000001 0
    vertex -0.006525506509268692 0.003235897191700581 0
    vertex -0.008500000000000001 0.004250000000000009 0
  endloop
endfacet
facet normal 0 -0 1
  outer loop
    vertex -0.006659696016958068 -0.001062499999999994 0
    vertex -0.006659696016958067 0.001062500000000006 0
    vertex -0.008500000000000001 6.938893903907228e-18 0
  endloop
endfacet
facet normal 0 -0 1
  outer loop
    vertex -0.006659696016958067 -0.005312499999999999 0
    vertex -0.006659696016958065 -0.003187499999999998 0
    vertex -0.008500000000000001 -0.004249999999999997 0
  endloop
endfacet
facet normal 0 0 1
  outer loop
    vertex 0.006659696016958067 0.001062499999999992 0
    vertex 0.004819976707768304 -1.231624706063295e-06 0
    vertex 0.006663204060071077 -0.001069889748236337 0
  endloop
endfacet
facet normal 0 0 1
  outer loop
    vertex -1.554781295644628e-06 0.004845812589322162 0
    vertex 0.002099342510763197 0.004955379195103086 0
    vertex 0.001059605389595483 0.006661367221054319 0
  endloop
endfacet
facet normal 0 0 1
  outer loop
    vertex 0.006663204060071077 -0.001069889748236337 0
    vertex 0.004845979738183271 -0.002183365775259589 0
    vertex 0.006680744275636127 -0.003231838489417977 0
  endloop
endfacet
facet normal 0 -0 1
  outer loop
    vertex -0.0007019984355974538 -0.003189277806203418 0
    vertex 0.001162085981493522 -0.002165130479630998 0
    vertex -0.0007040381262450724 -0.001071958309413515 0
  endloop
endfacet
facet normal 0 0 1
  outer loop
    vertex 0.008500000000000001 0.004249999999999997 0
    vertex 0.006701091392621334 0.003028929154838078 0
    vertex 0.008500000000000001 0.002124999999999993 0
  endloop
endfacet
facet normal 0 -0 1
  outer loop
    vertex 0.006659696016958067 0.001062499999999992 0
    vertex 0.006701091392621334 0.003028929154838078 0
    vertex 0.004893749374276349 0.001996172818599038 0
  endloop
endfacet
facet normal -0 0 1
  outer loop
    vertex -0.001062499999999993 0.006659696016958068 0
    vertex -1.554781295644628e-06 0.004845812589322162 0
    vertex 0.001059605389595483 0.006661367221054319 0
  endloop
endfacet
facet normal 0 -0 1
  outer loop
    vertex -0.002560971753360551 0.002087158147516888 0
    vertex -0.002407009203990126 0.004381931874571981 0
    vertex -0.00437053425558838 0.003129094248226091 0
  endloop
endfacet
facet normal -0 0 1
  outer loop
    vertex -0.002541823898251595 -0.004250000000000007 0
    vertex -0.0007649253283596752 -0.005311171876908764 0
    vertex -0.0007019984355974538 -0.003189277806203418 0
  endloop
endfacet
facet normal 0 -0 1
  outer loop
    vertex 0.001138784067832269 -0.004250000000000015 0
    vertex 0.001162085981493522 -0.002165130479630998 0
    vertex -0.0007019984355974538 -0.003189277806203418 0
  endloop
endfacet
facet normal 0 0 1
  outer loop
    vertex 0.002124999999999993 -0.008500000000000001 0
    vertex 0.001089612672805888 -0.00661767603401173 0
    vertex -6.938893903907228e-18 -0.008500000000000001 0
  endloop
endfacet
facet normal 0 0 1
  outer loop
    vertex 0.006374999999999999 -0.008500000000000001 0
    vertex 0.005043184884839617 -0.006638751732791961 0
    vertex 0.004249999999999997 -0.008500000000000001 0
  endloop
endfacet
facet normal 0 0 1
  outer loop
    vertex 0.008500000000000001 0.002124999999999993 0
    vertex 0.006659696016958067 0.001062499999999992 0
    vertex 0.008500000000000001 -6.938893903907228e-18 0
  endloop
endfacet
facet normal 0 0 1
  outer loop
    vertex 0.008500000000000001 0.002124999999999993 0
    vertex 0.006701091392621334 0.003028929154838078 0
    vertex 0.006659696016958067 0.001062499999999992 0
  endloop
endfacet
facet normal 0 0 1
  outer loop
    vertex 0.008500000000000001 0.006374999999999999 0
    vertex 0.006464435630100612 0.005129505692835603 0
    vertex 0.008500000000000001 0.004249999999999997 0
  endloop
endfacet
facet normal -0 0 1
  outer loop
    vertex -0.002124999999999993 0.008500000000000001 0
    vertex -0.001062499999999993 0.006659696016958068 0
    vertex 6.938893903907228e-18 0.008500000000000001 0
  endloop
endfacet
facet normal -0 0 1
  outer loop
    vertex -0.006374999999999999 0.008500000000000001 0
    vertex -0.005320658865624737 0.006703746957375225 0
    vertex -0.004249999999999997 0.008500000000000001 0
  endloop
endfacet
facet normal 0 0 1
  outer loop
    vertex -0.008500000000000001 -0.002124999999999993 0
    vertex -0.006659696016958068 -0.001062499999999994 0
    vertex -0.008500000000000001 6.938893903907228e-18 0
  endloop
endfacet
facet normal 0 0 1
  outer loop
    vertex -0.008500000000000001 -0.006374999999999999 0
    vertex -0.006659696016958067 -0.005312499999999999 0
    vertex -0.008500000000000001 -0.004249999999999997 0
  endloop
endfacet
facet normal 0 0 1
  outer loop
    vertex 0.006659696016958067 0.001062499999999992 0
    vertex 0.004893749374276349 0.001996172818599038 0
    vertex 0.004819976707768304 -1.231624706063295e-06 0
  endloop
endfacet
facet normal 0 0 1
  outer loop
    vertex 0.004893749374276349 0.001996172818599038 0
    vertex 0.003004292397881646 0.00101880221876657 0
    vertex 0.004819976707768304 -1.231624706063295e-06 0
  endloop
endfacet
facet normal 0 0 1
  outer loop
    vertex 0.003004292397881646 0.00101880221876657 0
    vertex 0.003002869763546604 -0.001101200193801935 0
    vertex 0.004819976707768304 -1.231624706063295e-06 0
  endloop
endfacet
facet normal 0 0 1
  outer loop
    vertex 0.003004292397881646 0.00101880221876657 0
    vertex 0.001140909313375789 -3.574811495016996e-06 0
    vertex 0.003002869763546604 -0.001101200193801935 0
  endloop
endfacet
facet normal 0 0 1
  outer loop
    vertex 0.003004292397881646 0.00101880221876657 0
    vertex 0.001127612250185343 0.001972961719091531 0
    vertex 0.001140909313375789 -3.574811495016996e-06 0
  endloop
endfacet
facet normal 0 0 1
  outer loop
    vertex 0.001127612250185343 0.001972961719091531 0
    vertex -0.0007187544269656507 0.001009324955013968 0
    vertex 0.001140909313375789 -3.574811495016996e-06 0
  endloop
endfacet
facet normal 0 0 1
  outer loop
    vertex -0.0007187544269656507 0.001009324955013968 0
    vertex -0.0007040381262450724 -0.001071958309413515 0
    vertex 0.001140909313375789 -3.574811495016996e-06 0
  endloop
endfacet
facet normal 0 0 1
  outer loop
    vertex -0.0007187544269656507 0.001009324955013968 0
    vertex -0.002545116018716825 -1.043889239992951e-05 0
    vertex -0.0007040381262450724 -0.001071958309413515 0
  endloop
endfacet
facet normal 0 0 1
  outer loop
    vertex -0.002545116018716825 -1.043889239992951e-05 0
    vertex -0.002542176809542934 -0.002126208527806945 0
    vertex -0.0007040381262450724 -0.001071958309413515 0
  endloop
endfacet
facet normal -0 0 1
  outer loop
    vertex -0.002542176809542934 -0.002126208527806945 0
    vertex -0.0007019984355974538 -0.003189277806203418 0
    vertex -0.0007040381262450724 -0.001071958309413515 0
  endloop
endfacet
facet normal 0 0 1
  outer loop
    vertex -0.002560971753360551 0.002087158147516888 0
    vertex -0.004382127881293525 0.001062499999999992 0
    vertex -0.002545116018716825 -1.043889239992951e-05 0
  endloop
endfacet
facet normal 0 0 1
  outer loop
    vertex -0.002560971753360551 0.002087158147516888 0
    vertex -0.00437053425558838 0.003129094248226091 0
    vertex -0.004382127881293525 0.001062499999999992 0
  endloop
endfacet
facet normal 0 0 1
  outer loop
    vertex -0.002542176809542934 -0.002126208527806945 0
    vertex -0.002541823898251595 -0.004250000000000007 0
    vertex -0.0007019984355974538 -0.003189277806203418 0
  endloop
endfacet
facet normal 0 0 1
  outer loop
    vertex -0.0007649253283596752 -0.005311171876908764 0
    vertex 0.001138784067832269 -0.004250000000000015 0
    vertex -0.0007019984355974538 -0.003189277806203418 0
  endloop
endfacet
facet normal 0 0 1
  outer loop
    vertex -0.002545116018716825 -1.043889239992951e-05 0
    vertex -0.004382127881293523 -0.001062500000000007 0
    vertex -0.002542176809542934 -0.002126208527806945 0
  endloop
endfacet
facet normal 0 0 1
  outer loop
    vertex -0.004382127881293525 0.001062499999999992 0
    vertex -0.004382127881293523 -0.001062500000000007 0
    vertex -0.002545116018716825 -1.043889239992951e-05 0
  endloop
endfacet
facet normal 0 0 1
  outer loop
    vertex -0.002542176809542934 -0.002126208527806945 0
    vertex -0.004290290539933676 -0.003173542064948269 0
    vertex -0.002541823898251595 -0.004250000000000007 0
  endloop
endfacet
facet normal 0 0 1
  outer loop
    vertex -0.002542176809542934 -0.002126208527806945 0
    vertex -0.004382127881293523 -0.001062500000000007 0
    vertex -0.004290290539933676 -0.003173542064948269 0
  endloop
endfacet
facet normal 0 0 1
  outer loop
    vertex -0.0007187544269656507 0.001009324955013968 0
    vertex -0.002560971753360551 0.002087158147516888 0
    vertex -0.002545116018716825 -1.043889239992951e-05 0
  endloop
endfacet
facet normal 0 0 1
  outer loop
    vertex -0.004250000000000009 -0.008500000000000001 0
    vertex -0.005212845883728915 -0.006741931688027361 0
    vertex -0.006375000000000003 -0.008500000000000001 0
  endloop
endfacet
facet normal -0 0 1
  outer loop
    vertex 0.004250000000000009 0.008500000000000001 0
    vertex 0.00523361122129197 0.006794498939997822 0
    vertex 0.006375000000000003 0.008500000000000001 0
  endloop
endfacet
facet normal 0 0 1
  outer loop
    vertex -0.008500000000000001 0.004250000000000009 0
    vertex -0.006715763898194374 0.005360375867706641 0
    vertex -0.008500000000000001 0.006375000000000003 0
  endloop
endfacet
facet normal 0 -0 1
  outer loop
    vertex 0.004197707326162203 0.005023372671699618 0
    vertex 0.00523361122129197 0.006794498939997822 0
    vertex 0.003170132337572858 0.006669723241535576 0
  endloop
endfacet
facet normal -0 0 1
  outer loop
    vertex 0.002099342510763197 0.004955379195103086 0
    vertex 0.003081981599094531 0.003179670429562506 0
    vertex 0.004197707326162203 0.005023372671699618 0
  endloop
endfacet
facet normal 0 -0 1
  outer loop
    vertex 0.003004292397881646 0.00101880221876657 0
    vertex 0.003081981599094531 0.003179670429562506 0
    vertex 0.001127612250185343 0.001972961719091531 0
  endloop
endfacet
facet normal 0 0 1
  outer loop
    vertex -0.0007649253283596752 -0.005311171876908764 0
    vertex -0.001062500000000008 -0.007062893078962321 0
    vertex 0.001089612672805888 -0.00661767603401173 0
  endloop
endfacet
facet normal 0 0 1
  outer loop
    vertex 0.001127612250185343 0.001972961719091531 0
    vertex -0.0006438441557342722 0.003004231907805947 0
    vertex -0.0007187544269656507 0.001009324955013968 0
  endloop
endfacet
facet normal 0 0 1
  outer loop
    vertex -0.002560971753360551 0.002087158147516888 0
    vertex -0.0006438441557342722 0.003004231907805947 0
    vertex -0.002407009203990126 0.004381931874571981 0
  endloop
endfacet
facet normal 0 0 1
  outer loop
    vertex 0.008500000000000001 -0.004250000000000009 0
    vertex 0.006751942469489867 -0.005250732945815678 0
    vertex 0.008500000000000001 -0.006375000000000003 0
  endloop
endfacet
facet normal 0 0 1
  outer loop
    vertex 0.006680744275636127 -0.003231838489417977 0
    vertex 0.006751942469489867 -0.005250732945815678 0
    vertex 0.008500000000000001 -0.004250000000000009 0
  endloop
endfacet
facet normal -0 0 1
  outer loop
    vertex 0.001089612672805888 -0.00661767603401173 0
    vertex 0.003187499999999995 -0.007185261573061488 0
    vertex 0.003005361183112824 -0.005476155270673907 0
  endloop
endfacet
facet normal 0 0 1
  outer loop
    vertex -0.002876841556691209 -0.006489534353269535 0
    vertex -0.005212845883728915 -0.006741931688027361 0
    vertex -0.004250000000000009 -0.008500000000000001 0
  endloop
endfacet
facet normal 0 0 1
  outer loop
    vertex -0.006525506509268692 0.003235897191700581 0
    vertex -0.006715763898194374 0.005360375867706641 0
    vertex -0.008500000000000001 0.004250000000000009 0
  endloop
endfacet
facet normal 0 0 1
  outer loop
    vertex 0.003170132337572858 0.006669723241535576 0
    vertex 0.00523361122129197 0.006794498939997822 0
    vertex 0.004250000000000009 0.008500000000000001 0
  endloop
endfacet
facet normal 0 -0 1
  outer loop
    vertex 0.005043184884839617 -0.006638751732791961 0
    vertex 0.006751942469489867 -0.005250732945815678 0
    vertex 0.004876904806269648 -0.004461340699146121 0
  endloop
endfacet
facet normal -0 0 1
  outer loop
    vertex -0.006715763898194374 0.005360375867706641 0
    vertex -0.004690726907366885 0.004938336697116826 0
    vertex -0.005320658865624737 0.006703746957375225 0
  endloop
endfacet
facet normal 0 0 1
  outer loop
    vertex 0.001089612672805888 -0.00661767603401173 0
    vertex -0.001062500000000008 -0.007062893078962321 0
    vertex -6.938893903907228e-18 -0.008500000000000001 0
  endloop
endfacet
facet normal 0 -0 1
  outer loop
    vertex -0.00212500000000001 -0.008500000000000001 0
    vertex -0.001062500000000008 -0.007062893078962321 0
    vertex -0.002876841556691209 -0.006489534353269535 0
  endloop
endfacet
facet normal 0 0 1
  outer loop
    vertex -0.003276560821837088 0.006627265048933342 0
    vertex -0.004690726907366885 0.004938336697116826 0
    vertex -0.002407009203990126 0.004381931874571981 0
  endloop
endfacet
facet normal 0 0 1
  outer loop
    vertex 0.004893749374276349 0.001996172818599038 0
    vertex 0.003081981599094531 0.003179670429562506 0
    vertex 0.003004292397881646 0.00101880221876657 0
  endloop
endfacet
facet normal 0 0 1
  outer loop
    vertex 0.005043184884839617 -0.006638751732791961 0
    vertex 0.003187499999999995 -0.007185261573061488 0
    vertex 0.004249999999999997 -0.008500000000000001 0
  endloop
endfacet
facet normal 0 -0 1
  outer loop
    vertex 0.002124999999999993 -0.008500000000000001 0
    vertex 0.003187499999999995 -0.007185261573061488 0
    vertex 0.001089612672805888 -0.00661767603401173 0
  endloop
endfacet
facet normal 0 0 1
  outer loop
    vertex -0.002407009203990126 0.004381931874571981 0
    vertex -0.004690726907366885 0.004938336697116826 0
    vertex -0.00437053425558838 0.003129094248226091 0
  endloop
endfacet
facet normal 0 0 1
  outer loop
    vertex -0.008500000000000001 -0.008500000000000001 0
    vertex -0.006944392033916137 -0.006944392033916135 0
    vertex -0.008500000000000001 -0.006374999999999999 0
  endloop
endfacet
facet normal 0 0 1
  outer loop
    vertex 0.008500000000000001 -0.008500000000000001 0
    vertex 0.006944392033916135 -0.006944392033916137 0
    vertex 0.006374999999999999 -0.008500000000000001 0
  endloop
endfacet
facet normal 0 0 1
  outer loop
    vertex 0.008500000000000001 0.008500000000000001 0
    vertex 0.006944392033916137 0.006944392033916135 0
    vertex 0.008500000000000001 0.006374999999999999 0
  endloop
endfacet
facet normal -0 0 1
  outer loop
    vertex -0.008500000000000001 0.008500000000000001 0
    vertex -0.006944392033916135 0.006944392033916137 0
    vertex -0.006374999999999999 0.008500000000000001 0
  endloop
endfacet
facet normal 0 0 1
  outer loop
    vertex -0.006375000000000003 -0.008500000000000001 0
    vertex -0.006944392033916137 -0.006944392033916135 0
    vertex -0.008500000000000001 -0.008500000000000001 0
  endloop
endfacet
facet normal 0 0 1
  outer loop
    vertex 0.008500000000000001 -0.006375000000000003 0
    vertex 0.006944392033916135 -0.006944392033916137 0
    vertex 0.008500000000000001 -0.008500000000000001 0
  endloop
endfacet
facet normal -0 0 1
  outer loop
    vertex 0.006375000000000003 0.008500000000000001 0
    vertex 0.006944392033916137 0.006944392033916135 0
    vertex 0.008500000000000001 0.008500000000000001 0
  endloop
endfacet
facet normal 0 0 1
  outer loop
    vertex -0.008500000000000001 0.006375000000000003 0
    vertex -0.006944392033916135 0.006944392033916137 0
    vertex -0.008500000000000001 0.008500000000000001 0
  endloop
endfacet
facet normal 0 0 1
  outer loop
    vertex 0.006464435630100612 0.005129505692835603 0
    vertex 0.005144616944472431 0.003632675475871223 0
    vertex 0.006701091392621334 0.003028929154838078 0
  endloop
endfacet
facet normal 0 -0 1
  outer loop
    vertex -0.0007187544269656507 0.001009324955013968 0
    vertex -0.0006438441557342722 0.003004231907805947 0
    vertex -0.002560971753360551 0.002087158147516888 0
  endloop
endfacet
facet normal 0 0 1
  outer loop
    vertex 0.003081981599094531 0.003179670429562506 0
    vertex 0.005144616944472431 0.003632675475871223 0
    vertex 0.004197707326162203 0.005023372671699618 0
  endloop
endfacet
facet normal 0 0 1
  outer loop
    vertex -0.004290290539933676 -0.003173542064948269 0
    vertex -0.004248753057940069 -0.005081488029501288 0
    vertex -0.002541823898251595 -0.004250000000000007 0
  endloop
endfacet
facet normal 0 0 1
  outer loop
    vertex -0.006525506509268692 0.003235897191700581 0
    vertex -0.005520911949125806 0.00212500000000001 0
    vertex -0.00437053425558838 0.003129094248226091 0
  endloop
endfacet
facet normal 0 0 1
  outer loop
    vertex 0.003081981599094531 0.003179670429562506 0
    vertex 0.001062500000000007 0.003680607966083859 0
    vertex 0.001127612250185343 0.001972961719091531 0
  endloop
endfacet
facet normal 0 -0 1
  outer loop
    vertex 0.004893749374276349 0.001996172818599038 0
    vertex 0.005144616944472431 0.003632675475871223 0
    vertex 0.003081981599094531 0.003179670429562506 0
  endloop
endfacet
facet normal 0 0 1
  outer loop
    vertex -0.005320658865624737 0.006703746957375225 0
    vertex -0.004690726907366885 0.004938336697116826 0
    vertex -0.003276560821837088 0.006627265048933342 0
  endloop
endfacet
facet normal 0 0 1
  outer loop
    vertex -0.002876841556691209 -0.006489534353269535 0
    vertex -0.004248753057940069 -0.005081488029501288 0
    vertex -0.005212845883728915 -0.006741931688027361 0
  endloop
endfacet
facet normal 0 0 1
  outer loop
    vertex 0.001127612250185343 0.001972961719091531 0
    vertex 0.001062500000000007 0.003680607966083859 0
    vertex -0.0006438441557342722 0.003004231907805947 0
  endloop
endfacet
facet normal 0 0 1
  outer loop
    vertex -6.938893903907228e-18 -0.008500000000000001 0
    vertex -0.001062500000000008 -0.007062893078962321 0
    vertex -0.00212500000000001 -0.008500000000000001 0
  endloop
endfacet
facet normal 0 0 1
  outer loop
    vertex 0.002099342510763197 0.004955379195103086 0
    vertex 0.001062500000000007 0.003680607966083859 0
    vertex 0.003081981599094531 0.003179670429562506 0
  endloop
endfacet
facet normal 0 0 1
  outer loop
    vertex -0.005212845883728915 -0.006741931688027361 0
    vertex -0.006944392033916137 -0.006944392033916135 0
    vertex -0.006375000000000003 -0.008500000000000001 0
  endloop
endfacet
facet normal 0 0 1
  outer loop
    vertex 0.00523361122129197 0.006794498939997822 0
    vertex 0.006944392033916137 0.006944392033916135 0
    vertex 0.006375000000000003 0.008500000000000001 0
  endloop
endfacet
facet normal 0 0 1
  outer loop
    vertex -0.006715763898194374 0.005360375867706641 0
    vertex -0.006944392033916135 0.006944392033916137 0
    vertex -0.008500000000000001 0.006375000000000003 0
  endloop
endfacet
facet normal 0 0 1
  outer loop
    vertex 0.004249999999999997 -0.008500000000000001 0
    vertex 0.003187499999999995 -0.007185261573061488 0
    vertex 0.002124999999999993 -0.008500000000000001 0
  endloop
endfacet
facet normal 0 -0 1
  outer loop
    vertex 0.006374999999999999 -0.008500000000000001 0
    vertex 0.006944392033916135 -0.006944392033916137 0
    vertex 0.005043184884839617 -0.006638751732791961 0
  endloop
endfacet
facet normal 0 0 1
  outer loop
    vertex 0.008500000000000001 0.006374999999999999 0
    vertex 0.006944392033916137 0.006944392033916135 0
    vertex 0.006464435630100612 0.005129505692835603 0
  endloop
endfacet
facet normal 0 0 1
  outer loop
    vertex -0.006374999999999999 0.008500000000000001 0
    vertex -0.006944392033916135 0.006944392033916137 0
    vertex -0.005320658865624737 0.006703746957375225 0
  endloop
endfacet
facet normal -0 0 1
  outer loop
    vertex -0.008500000000000001 -0.006374999999999999 0
    vertex -0.006944392033916137 -0.006944392033916135 0
    vertex -0.006659696016958067 -0.005312499999999999 0
  endloop
endfacet
facet normal 0 0 1
  outer loop
    vertex -0.0006438441557342722 0.003004231907805947 0
    vertex 0.001062500000000007 0.003680607966083859 0
    vertex -1.554781295644628e-06 0.004845812589322162 0
  endloop
endfacet
facet normal 0 0 1
  outer loop
    vertex 0.006751942469489867 -0.005250732945815678 0
    vertex 0.006944392033916135 -0.006944392033916137 0
    vertex 0.008500000000000001 -0.006375000000000003 0
  endloop
endfacet
facet normal 0 0 1
  outer loop
    vertex -0.005520911949125801 -0.002124999999999993 0
    vertex -0.005519783606055054 -0.004077261668691657 0
    vertex -0.004290290539933676 -0.003173542064948269 0
  endloop
endfacet
facet normal 0 0 1
  outer loop
    vertex -0.004382127881293525 0.001062499999999992 0
    vertex -0.005520911949125806 0.00212500000000001 0
    vertex -0.005520911949125802 5.754192530345023e-18 0
  endloop
endfacet
facet normal 0 0 1
  outer loop
    vertex -0.005520911949125802 5.754192530345023e-18 0
    vertex -0.005520911949125806 0.00212500000000001 0
    vertex -0.006659696016958067 0.001062500000000006 0
  endloop
endfacet
facet normal 0 -0 1
  outer loop
    vertex -0.006659696016958065 -0.003187499999999998 0
    vertex -0.005520911949125801 -0.002124999999999993 0
    vertex -0.006659696016958068 -0.001062499999999994 0
  endloop
endfacet
facet normal 0 0 1
  outer loop
    vertex -0.006659696016958067 0.001062500000000006 0
    vertex -0.005520911949125806 0.00212500000000001 0
    vertex -0.006525506509268692 0.003235897191700581 0
  endloop
endfacet
facet normal 0 0 1
  outer loop
    vertex -0.00437053425558838 0.003129094248226091 0
    vertex -0.005520911949125806 0.00212500000000001 0
    vertex -0.004382127881293525 0.001062499999999992 0
  endloop
endfacet
facet normal -0 0 1
  outer loop
    vertex -1.554781295644628e-06 0.004845812589322162 0
    vertex 0.001062500000000007 0.003680607966083859 0
    vertex 0.002099342510763197 0.004955379195103086 0
  endloop
endfacet
facet normal 0 0 1
  outer loop
    vertex -0.004382127881293523 -0.001062500000000007 0
    vertex -0.005520911949125802 5.754192530345023e-18 0
    vertex -0.005520911949125801 -0.002124999999999993 0
  endloop
endfacet
facet normal 0 0 1
  outer loop
    vertex -0.004382127881293525 0.001062499999999992 0
    vertex -0.005520911949125802 5.754192530345023e-18 0
    vertex -0.004382127881293523 -0.001062500000000007 0
  endloop
endfacet
facet normal 0 0 1
  outer loop
    vertex -0.004382127881293523 -0.001062500000000007 0
    vertex -0.005520911949125801 -0.002124999999999993 0
    vertex -0.004290290539933676 -0.003173542064948269 0
  endloop
endfacet
facet normal 0 0 1
  outer loop
    vertex -0.006659696016958068 -0.001062499999999994 0
    vertex -0.005520911949125802 5.754192530345023e-18 0
    vertex -0.006659696016958067 0.001062500000000006 0
  endloop
endfacet
facet normal 0 0 1
  outer loop
    vertex -0.005520911949125801 -0.002124999999999993 0
    vertex -0.005520911949125802 5.754192530345023e-18 0
    vertex -0.006659696016958068 -0.001062499999999994 0
  endloop
endfacet
facet normal -0 0 1
  outer loop
    vertex -0.006659696016958065 -0.003187499999999998 0
    vertex -0.005519783606055054 -0.004077261668691657 0
    vertex -0.005520911949125801 -0.002124999999999993 0
  endloop
endfacet
facet normal 0 0 1
  outer loop
    vertex -0.006659696016958067 -0.005312499999999999 0
    vertex -0.005519783606055054 -0.004077261668691657 0
    vertex -0.006659696016958065 -0.003187499999999998 0
  endloop
endfacet
facet normal 0 0 1
  outer loop
    vertex 0.006701091392621334 0.003028929154838078 0
    vertex 0.005144616944472431 0.003632675475871223 0
    vertex 0.004893749374276349 0.001996172818599038 0
  endloop
endfacet
facet normal 0 -0 1
  outer loop
    vertex 0.006464435630100612 0.005129505692835603 0
    vertex 0.006944392033916137 0.006944392033916135 0
    vertex 0.00523361122129197 0.006794498939997822 0
  endloop
endfacet
facet normal 0 0 1
  outer loop
    vertex -0.005320658865624737 0.006703746957375225 0
    vertex -0.006944392033916135 0.006944392033916137 0
    vertex -0.006715763898194374 0.005360375867706641 0
  endloop
endfacet
facet normal 0 0 1
  outer loop
    vertex -0.006659696016958067 -0.005312499999999999 0
    vertex -0.006944392033916137 -0.006944392033916135 0
    vertex -0.005212845883728915 -0.006741931688027361 0
  endloop
endfacet
facet normal -0 0 1
  outer loop
    vertex 0.005043184884839617 -0.006638751732791961 0
    vertex 0.006944392033916135 -0.006944392033916137 0
    vertex 0.006751942469489867 -0.005250732945815678 0
  endloop
endfacet
facet normal 0 0 1
  outer loop
    vertex -0.004290290539933676 -0.003173542064948269 0
    vertex -0.005519783606055054 -0.004077261668691657 0
    vertex -0.004248753057940069 -0.005081488029501288 0
  endloop
endfacet
endsolid Created by Gmsh
