solid Created by Gmsh
facet normal -0 0 1
  outer loop
    vertex 0.003114365403267178 -0.00315834674533779 0
    vertex 0.004577927567844906 -0.003625559779030889 0
    vertex 0.004484852099439406 -0.00229281857105101 0
  endloop
endfacet
facet normal 0 -0 1
  outer loop
    vertex 0.004480374155355439 0.0008263977986787011 0
    vertex 0.004504406191264637 0.002201618689474428 0
    vertex 0.003087229294958028 0.001620871367034618 0
  endloop
endfacet
facet normal 0 0 1
  outer loop
    vertex -0.00441288336022329 0.001956252258550021 0
    vertex -0.003611505747718629 0.0005201141660557242 0
    vertex -0.002890000000000017 0.001728440250811084 0
  endloop
endfacet
facet normal 0 0 1
  outer loop
    vertex 0.004484852099439406 -0.00229281857105101 0
    vertex 0.003366356657460722 -0.001858910496679219 0
    vertex 0.003114365403267178 -0.00315834674533779 0
  endloop
endfacet
facet normal 0 0 1
  outer loop
    vertex 0.003087229294958028 0.001620871367034618 0
    vertex 0.003375212878998677 0.0002829290845006338 0
    vertex 0.004480374155355439 0.0008263977986787011 0
  endloop
endfacet
facet normal 0 0 1
  outer loop
    vertex -0.00441288336022329 0.001956252258550021 0
    vertex -0.004802767293694383 0.0007225000000000067 0
    vertex -0.003611505747718629 0.0005201141660557242 0
  endloop
endfacet
facet normal 0 0 1
  outer loop
    vertex -0.004514351178298535 -0.00342936572169094 0
    vertex -0.003033711675419365 -0.003316295268263362 0
    vertex -0.00372378558405826 -0.002043645604516722 0
  endloop
endfacet
facet normal 0 -0 1
  outer loop
    vertex -0.002197650172804226 -0.004542906107432567 0
    vertex -0.001483987989570144 -0.003294894370298742 0
    vertex -0.003033711675419365 -0.003316295268263362 0
  endloop
endfacet
facet normal 0 0 1
  outer loop
    vertex -0.00372378558405826 -0.002043645604516722 0
    vertex -0.004885977869681814 -0.002167499999999996 0
    vertex -0.004514351178298535 -0.00342936572169094 0
  endloop
endfacet
facet normal 0 0 1
  outer loop
    vertex -0.00450001970312798 -0.0007409366175080046 0
    vertex -0.00372378558405826 -0.002043645604516722 0
    vertex -0.002890000000000013 -0.0007743731661259458 0
  endloop
endfacet
facet normal -0 0 1
  outer loop
    vertex -0.00450001970312798 -0.0007409366175080046 0
    vertex -0.002890000000000013 -0.0007743731661259458 0
    vertex -0.003611505747718629 0.0005201141660557242 0
  endloop
endfacet
facet normal 0 0 1
  outer loop
    vertex -0.0007437343689401027 -0.002039075195132543 0
    vertex -0.001470494459829058 -0.0007903002980798196 0
    vertex -0.00229484479467302 -0.002105272728113318 0
  endloop
endfacet
facet normal 0 0 1
  outer loop
    vertex -0.003033711675419365 -0.003316295268263362 0
    vertex -0.001483987989570144 -0.003294894370298742 0
    vertex -0.00229484479467302 -0.002105272728113318 0
  endloop
endfacet
facet normal 0 -0 1
  outer loop
    vertex 0.003606377001389131 -0.004556414394894322 0
    vertex 0.004577927567844906 -0.003625559779030889 0
    vertex 0.003114365403267178 -0.00315834674533779 0
  endloop
endfacet
facet normal -0 0 1
  outer loop
    vertex 0.002840678383949717 -0.0007644427327265069 0
    vertex 0.003366356657460722 -0.001858910496679219 0
    vertex 0.00430028256073021 -0.0007452145528262185 0
  endloop
endfacet
facet normal 0 0 1
  outer loop
    vertex 0.00430028256073021 -0.0007452145528262185 0
    vertex 0.003375212878998677 0.0002829290845006338 0
    vertex 0.002840678383949717 -0.0007644427327265069 0
  endloop
endfacet
facet normal 0 -0 1
  outer loop
    vertex -0.00229484479467302 -0.002105272728113318 0
    vertex -0.001470494459829058 -0.0007903002980798196 0
    vertex -0.002890000000000013 -0.0007743731661259458 0
  endloop
endfacet
facet normal -0 0 1
  outer loop
    vertex -0.00229484479467302 -0.002105272728113318 0
    vertex -0.001483987989570144 -0.003294894370298742 0
    vertex -0.0007437343689401027 -0.002039075195132543 0
  endloop
endfacet
facet normal 0 0 1
  outer loop
    vertex 0.004504406191264637 0.002201618689474428 0
    vertex 0.00340217644069525 0.002823955293445614 0
    vertex 0.003087229294958028 0.001620871367034618 0
  endloop
endfacet
facet normal 0 0 1
  outer loop
    vertex -0.002890000000000017 0.001728440250811084 0
    vertex -0.003455411860060885 0.00288915207939924 0
    vertex -0.00441288336022329 0.001956252258550021 0
  endloop
endfacet
facet normal -0 0 1
  outer loop
    vertex -0.00372378558405826 -0.002043645604516722 0
    vertex -0.00229484479467302 -0.002105272728113318 0
    vertex -0.002890000000000013 -0.0007743731661259458 0
  endloop
endfacet
facet normal -0 0 1
  outer loop
    vertex -0.004584513547858607 0.003544735200935662 0
    vertex -0.003455411860060885 0.00288915207939924 0
    vertex -0.003612499999999998 0.004528593291531486 0
  endloop
endfacet
facet normal 0 -0 1
  outer loop
    vertex -0.003455411860060885 0.00288915207939924 0
    vertex -0.002772534817351593 0.003753451460055031 0
    vertex -0.003612499999999998 0.004528593291531486 0
  endloop
endfacet
facet normal 0 0 1
  outer loop
    vertex 0.00430028256073021 -0.0007452145528262185 0
    vertex 0.003366356657460722 -0.001858910496679219 0
    vertex 0.004484852099439406 -0.00229281857105101 0
  endloop
endfacet
facet normal 0 0 1
  outer loop
    vertex -0.00372378558405826 -0.002043645604516722 0
    vertex -0.003033711675419365 -0.003316295268263362 0
    vertex -0.00229484479467302 -0.002105272728113318 0
  endloop
endfacet
facet normal 0 0 1
  outer loop
    vertex -0.003033711675419365 -0.003316295268263362 0
    vertex -0.003570498403154665 -0.004591320879253112 0
    vertex -0.002197650172804226 -0.004542906107432567 0
  endloop
endfacet
facet normal 0 -0 1
  outer loop
    vertex 0.002166479500231517 -0.004533230142091957 0
    vertex 0.003114365403267178 -0.00315834674533779 0
    vertex 0.001444829916705248 -0.003277959391489715 0
  endloop
endfacet
facet normal 0 -0 1
  outer loop
    vertex 0.001444829916705248 -0.003277959391489715 0
    vertex 0.002167499999999995 -0.002025779874594455 0
    vertex 0.0007224669282482355 -0.002025930142899657 0
  endloop
endfacet
facet normal 0 0 1
  outer loop
    vertex 0.002889999999999997 -0.00578 0
    vertex 0.002166479500231517 -0.004533230142091957 0
    vertex 0.001444999999999996 -0.00578 0
  endloop
endfacet
facet normal -0 0 1
  outer loop
    vertex 6.071532165918825e-18 0.00578 0
    vertex 0.0007225000000000055 0.004528593291531484 0
    vertex 0.001445000000000007 0.00578 0
  endloop
endfacet
facet normal 0 0 1
  outer loop
    vertex 0.0007224669282482355 -0.002025930142899657 0
    vertex 0.002167499999999995 -0.002025779874594455 0
    vertex 0.001444403725799924 -0.0007747716994224538 0
  endloop
endfacet
facet normal 0 0 1
  outer loop
    vertex 0.003606377001389131 -0.004556414394894322 0
    vertex 0.002166479500231517 -0.004533230142091957 0
    vertex 0.002889999999999997 -0.00578 0
  endloop
endfacet
facet normal 0 0 1
  outer loop
    vertex 0.004383904155011769 0.003619327825871882 0
    vertex 0.004504406191264637 0.002201618689474428 0
    vertex 0.00578 0.002889999999999997 0
  endloop
endfacet
facet normal -0 0 1
  outer loop
    vertex -0.003612499999999998 0.004528593291531486 0
    vertex -0.002167499999999996 0.004528593291531485 0
    vertex -0.002889999999999997 0.00578 0
  endloop
endfacet
facet normal 0 0 1
  outer loop
    vertex 0.003114365403267178 -0.00315834674533779 0
    vertex 0.002167499999999995 -0.002025779874594455 0
    vertex 0.001444829916705248 -0.003277959391489715 0
  endloop
endfacet
facet normal 0 -0 1
  outer loop
    vertex 0.002167499999999995 -0.002025779874594455 0
    vertex 0.002840678383949717 -0.0007644427327265069 0
    vertex 0.001444403725799924 -0.0007747716994224538 0
  endloop
endfacet
facet normal 0 0 1
  outer loop
    vertex 0.0007224999999999944 -0.004528593291531486 0
    vertex -0.0007275297533366754 -0.004531000227749075 0
    vertex -6.071532165918825e-18 -0.00578 0
  endloop
endfacet
facet normal 0 0 1
  outer loop
    vertex 0.00578 -6.071532165918825e-18 0
    vertex 0.00430028256073021 -0.0007452145528262185 0
    vertex 0.00578 -0.001445000000000007 0
  endloop
endfacet
facet normal 0 0 1
  outer loop
    vertex 0.00578 0.002889999999999997 0
    vertex 0.004504406191264637 0.002201618689474428 0
    vertex 0.00578 0.001444999999999996 0
  endloop
endfacet
facet normal -0 0 1
  outer loop
    vertex -0.002889999999999997 0.00578 0
    vertex -0.002167499999999996 0.004528593291531485 0
    vertex -0.001444999999999996 0.00578 0
  endloop
endfacet
facet normal -0 0 1
  outer loop
    vertex 0.001444884976454188 0.001728366932345245 0
    vertex 0.003087229294958028 0.001620871367034618 0
    vertex 0.002157313790673267 0.00291685475461466 0
  endloop
endfacet
facet normal 0 -0 1
  outer loop
    vertex -0.001445117630964555 0.001728365782970281 0
    vertex -0.0007225000000000178 0.002979846959279602 0
    vertex -0.002157965834003016 0.002917378468058757 0
  endloop
endfacet
facet normal 0 0 1
  outer loop
    vertex -6.071532165918825e-18 -0.00578 0
    vertex -0.0007275297533366754 -0.004531000227749075 0
    vertex -0.001445000000000007 -0.00578 0
  endloop
endfacet
facet normal 0 -0 1
  outer loop
    vertex -0.001445000000000007 -0.00578 0
    vertex -0.0007275297533366754 -0.004531000227749075 0
    vertex -0.002197650172804226 -0.004542906107432567 0
  endloop
endfacet
facet normal 0 0 1
  outer loop
    vertex 0.001444999999999996 -0.00578 0
    vertex 0.0007224999999999944 -0.004528593291531486 0
    vertex -6.071532165918825e-18 -0.00578 0
  endloop
endfacet
facet normal 0 0 1
  outer loop
    vertex 0.004334999999999999 -0.00578 0
    vertex 0.003606377001389131 -0.004556414394894322 0
    vertex 0.002889999999999997 -0.00578 0
  endloop
endfacet
facet normal 0 0 1
  outer loop
    vertex 0.00578 -0.001445000000000007 0
    vertex 0.00430028256073021 -0.0007452145528262185 0
    vertex 0.004484852099439406 -0.00229281857105101 0
  endloop
endfacet
facet normal 0 0 1
  outer loop
    vertex 0.00578 0.001444999999999996 0
    vertex 0.004480374155355439 0.0008263977986787011 0
    vertex 0.00578 -6.071532165918825e-18 0
  endloop
endfacet
facet normal 0 0 1
  outer loop
    vertex 0.00578 0.004334999999999999 0
    vertex 0.004383904155011769 0.003619327825871882 0
    vertex 0.00578 0.002889999999999997 0
  endloop
endfacet
facet normal 0 0 1
  outer loop
    vertex 0.001445000000000007 0.00578 0
    vertex 0.0007225000000000055 0.004528593291531484 0
    vertex 0.002163906389215687 0.004572058768840782 0
  endloop
endfacet
facet normal -0 0 1
  outer loop
    vertex -0.001444999999999996 0.00578 0
    vertex -0.0007224999999999947 0.004528593291531486 0
    vertex 6.071532165918825e-18 0.00578 0
  endloop
endfacet
facet normal -0 0 1
  outer loop
    vertex -0.004334999999999999 0.00578 0
    vertex -0.003612499999999998 0.004528593291531486 0
    vertex -0.002889999999999997 0.00578 0
  endloop
endfacet
facet normal 0 0 1
  outer loop
    vertex -0.00578 -0.001444999999999996 0
    vertex -0.00450001970312798 -0.0007409366175080046 0
    vertex -0.00578 6.071532165918825e-18 0
  endloop
endfacet
facet normal 0 0 1
  outer loop
    vertex -0.00578 -0.004334999999999999 0
    vertex -0.004514351178298535 -0.00342936572169094 0
    vertex -0.00578 -0.002889999999999997 0
  endloop
endfacet
facet normal 0 0 1
  outer loop
    vertex -2.834721579872701e-08 -0.003277315384467429 0
    vertex -0.0007275297533366754 -0.004531000227749075 0
    vertex 0.0007224999999999944 -0.004528593291531486 0
  endloop
endfacet
facet normal 0 0 1
  outer loop
    vertex -0.0007437343689401027 -0.002039075195132543 0
    vertex -0.001483987989570144 -0.003294894370298742 0
    vertex -2.834721579872701e-08 -0.003277315384467429 0
  endloop
endfacet
facet normal 0 0 1
  outer loop
    vertex 0.0007224669282482355 -0.002025930142899657 0
    vertex -3.544573448652496e-06 -0.0007766140975998233 0
    vertex -0.0007437343689401027 -0.002039075195132543 0
  endloop
endfacet
facet normal 0 0 1
  outer loop
    vertex -1.466586607911031e-17 0.001728440250811087 0
    vertex -0.0007225000000000178 0.002979846959279602 0
    vertex -0.001445117630964555 0.001728365782970281 0
  endloop
endfacet
facet normal 0 0 1
  outer loop
    vertex 0.0007224999999999837 0.002979846959279602 0
    vertex -0.0007225000000000178 0.002979846959279602 0
    vertex -1.466586607911031e-17 0.001728440250811087 0
  endloop
endfacet
facet normal 0 -0 1
  outer loop
    vertex 0.001444999999999996 -0.00578 0
    vertex 0.002166479500231517 -0.004533230142091957 0
    vertex 0.0007224999999999944 -0.004528593291531486 0
  endloop
endfacet
facet normal 0 0 1
  outer loop
    vertex 0.00578 0.001444999999999996 0
    vertex 0.004504406191264637 0.002201618689474428 0
    vertex 0.004480374155355439 0.0008263977986787011 0
  endloop
endfacet
facet normal -0 0 1
  outer loop
    vertex -0.0007224999999999947 0.004528593291531486 0
    vertex 0.0007225000000000055 0.004528593291531484 0
    vertex 6.071532165918825e-18 0.00578 0
  endloop
endfacet
facet normal 0 0 1
  outer loop
    vertex -0.001444999999999996 0.00578 0
    vertex -0.002167499999999996 0.004528593291531485 0
    vertex -0.0007224999999999947 0.004528593291531486 0
  endloop
endfacet
facet normal 0 0 1
  outer loop
    vertex 0.0007224669282482355 -0.002025930142899657 0
    vertex -0.0007437343689401027 -0.002039075195132543 0
    vertex -2.834721579872701e-08 -0.003277315384467429 0
  endloop
endfacet
facet normal 0 0 1
  outer loop
    vertex -2.834721579872701e-08 -0.003277315384467429 0
    vertex -0.001483987989570144 -0.003294894370298742 0
    vertex -0.0007275297533366754 -0.004531000227749075 0
  endloop
endfacet
facet normal 0 -0 1
  outer loop
    vertex 0.0007224669282482355 -0.002025930142899657 0
    vertex 0.001444403725799924 -0.0007747716994224538 0
    vertex -3.544573448652496e-06 -0.0007766140975998233 0
  endloop
endfacet
facet normal 0 0 1
  outer loop
    vertex 0.001444403725799924 -0.0007747716994224538 0
    vertex 0.0007218098587252029 0.0004765936315475077 0
    vertex -3.544573448652496e-06 -0.0007766140975998233 0
  endloop
endfacet
facet normal 0 0 1
  outer loop
    vertex 0.0007218098587252029 0.0004765936315475077 0
    vertex -0.0007232057857872511 0.0004765867352977469 0
    vertex -3.544573448652496e-06 -0.0007766140975998233 0
  endloop
endfacet
facet normal 0 0 1
  outer loop
    vertex -0.0007232057857872511 0.0004765867352977469 0
    vertex -0.001470494459829058 -0.0007903002980798196 0
    vertex -3.544573448652496e-06 -0.0007766140975998233 0
  endloop
endfacet
facet normal 0 -0 1
  outer loop
    vertex 0.001444403725799924 -0.0007747716994224538 0
    vertex 0.002167499999999988 0.0004770335423425756 0
    vertex 0.0007218098587252029 0.0004765936315475077 0
  endloop
endfacet
facet normal 0 0 1
  outer loop
    vertex 0.0007218098587252029 0.0004765936315475077 0
    vertex -1.466586607911031e-17 0.001728440250811087 0
    vertex -0.0007232057857872511 0.0004765867352977469 0
  endloop
endfacet
facet normal 0 -0 1
  outer loop
    vertex 0.0007218098587252029 0.0004765936315475077 0
    vertex 0.001444884976454188 0.001728366932345245 0
    vertex -1.466586607911031e-17 0.001728440250811087 0
  endloop
endfacet
facet normal 0 0 1
  outer loop
    vertex -0.001445117630964555 0.001728365782970281 0
    vertex -0.00216763723612531 0.000476946663194965 0
    vertex -0.0007232057857872511 0.0004765867352977469 0
  endloop
endfacet
facet normal 0 -0 1
  outer loop
    vertex 0.001444884976454188 0.001728366932345245 0
    vertex 0.002157313790673267 0.00291685475461466 0
    vertex 0.0007224999999999837 0.002979846959279602 0
  endloop
endfacet
facet normal 0 0 1
  outer loop
    vertex 0.001444884976454188 0.001728366932345245 0
    vertex 0.002167499999999988 0.0004770335423425756 0
    vertex 0.003087229294958028 0.001620871367034618 0
  endloop
endfacet
facet normal 0 0 1
  outer loop
    vertex -0.001445117630964555 0.001728365782970281 0
    vertex -0.002890000000000017 0.001728440250811084 0
    vertex -0.00216763723612531 0.000476946663194965 0
  endloop
endfacet
facet normal -0 0 1
  outer loop
    vertex -0.002890000000000013 -0.0007743731661259458 0
    vertex -0.001470494459829058 -0.0007903002980798196 0
    vertex -0.00216763723612531 0.000476946663194965 0
  endloop
endfacet
facet normal 0 0 1
  outer loop
    vertex -0.001445000000000007 -0.00578 0
    vertex -0.002197650172804226 -0.004542906107432567 0
    vertex -0.002890000000000008 -0.00578 0
  endloop
endfacet
facet normal 0 0 1
  outer loop
    vertex 0.00578 -0.001445000000000007 0
    vertex 0.004484852099439406 -0.00229281857105101 0
    vertex 0.00578 -0.002890000000000008 0
  endloop
endfacet
facet normal 0 0 1
  outer loop
    vertex 0.004480374155355439 0.0008263977986787011 0
    vertex 0.00430028256073021 -0.0007452145528262185 0
    vertex 0.00578 -6.071532165918825e-18 0
  endloop
endfacet
facet normal 0 0 1
  outer loop
    vertex 0.003606377001389131 -0.004556414394894322 0
    vertex 0.003114365403267178 -0.00315834674533779 0
    vertex 0.002166479500231517 -0.004533230142091957 0
  endloop
endfacet
facet normal 0 0 1
  outer loop
    vertex 0.001444829916705248 -0.003277959391489715 0
    vertex 0.0007224669282482355 -0.002025930142899657 0
    vertex -2.834721579872701e-08 -0.003277315384467429 0
  endloop
endfacet
facet normal 0 0 1
  outer loop
    vertex -3.544573448652496e-06 -0.0007766140975998233 0
    vertex -0.001470494459829058 -0.0007903002980798196 0
    vertex -0.0007437343689401027 -0.002039075195132543 0
  endloop
endfacet
facet normal 0 0 1
  outer loop
    vertex 0.002840678383949717 -0.0007644427327265069 0
    vertex 0.002167499999999988 0.0004770335423425756 0
    vertex 0.001444403725799924 -0.0007747716994224538 0
  endloop
endfacet
facet normal 0 0 1
  outer loop
    vertex 0.0007218098587252029 0.0004765936315475077 0
    vertex 0.002167499999999988 0.0004770335423425756 0
    vertex 0.001444884976454188 0.001728366932345245 0
  endloop
endfacet
facet normal 0 0 1
  outer loop
    vertex -1.466586607911031e-17 0.001728440250811087 0
    vertex -0.001445117630964555 0.001728365782970281 0
    vertex -0.0007232057857872511 0.0004765867352977469 0
  endloop
endfacet
facet normal 0 0 1
  outer loop
    vertex -0.00216763723612531 0.000476946663194965 0
    vertex -0.001470494459829058 -0.0007903002980798196 0
    vertex -0.0007232057857872511 0.0004765867352977469 0
  endloop
endfacet
facet normal 0 0 1
  outer loop
    vertex -0.001445117630964555 0.001728365782970281 0
    vertex -0.002157965834003016 0.002917378468058757 0
    vertex -0.002890000000000017 0.001728440250811084 0
  endloop
endfacet
facet normal 0 0 1
  outer loop
    vertex -0.002890000000000017 0.001728440250811084 0
    vertex -0.003611505747718629 0.0005201141660557242 0
    vertex -0.00216763723612531 0.000476946663194965 0
  endloop
endfacet
facet normal -0 0 1
  outer loop
    vertex 0.001445000000000007 0.00578 0
    vertex 0.002163906389215687 0.004572058768840782 0
    vertex 0.002890000000000008 0.00578 0
  endloop
endfacet
facet normal 0 0 1
  outer loop
    vertex -0.00578 0.001445000000000007 0
    vertex -0.00441288336022329 0.001956252258550021 0
    vertex -0.00578 0.002890000000000008 0
  endloop
endfacet
facet normal 0 0 1
  outer loop
    vertex 0.001444829916705248 -0.003277959391489715 0
    vertex -2.834721579872701e-08 -0.003277315384467429 0
    vertex 0.0007224999999999944 -0.004528593291531486 0
  endloop
endfacet
facet normal 0 0 1
  outer loop
    vertex 0.001444884976454188 0.001728366932345245 0
    vertex 0.0007224999999999837 0.002979846959279602 0
    vertex -1.466586607911031e-17 0.001728440250811087 0
  endloop
endfacet
facet normal 0 0 1
  outer loop
    vertex -0.003611505747718629 0.0005201141660557242 0
    vertex -0.002890000000000013 -0.0007743731661259458 0
    vertex -0.00216763723612531 0.000476946663194965 0
  endloop
endfacet
facet normal 0 0 1
  outer loop
    vertex 0.002166479500231517 -0.004533230142091957 0
    vertex 0.001444829916705248 -0.003277959391489715 0
    vertex 0.0007224999999999944 -0.004528593291531486 0
  endloop
endfacet
facet normal 0 0 1
  outer loop
    vertex -0.0007275297533366754 -0.004531000227749075 0
    vertex -0.001483987989570144 -0.003294894370298742 0
    vertex -0.002197650172804226 -0.004542906107432567 0
  endloop
endfacet
facet normal 0 0 1
  outer loop
    vertex 0.003562170983143163 0.004705779501334686 0
    vertex 0.002878028771568545 0.003761103830232481 0
    vertex 0.004383904155011769 0.003619327825871882 0
  endloop
endfacet
facet normal 0 0 1
  outer loop
    vertex 0.004383904155011769 0.003619327825871882 0
    vertex 0.002878028771568545 0.003761103830232481 0
    vertex 0.00340217644069525 0.002823955293445614 0
  endloop
endfacet
facet normal 0 0 1
  outer loop
    vertex 0.004480374155355439 0.0008263977986787011 0
    vertex 0.003375212878998677 0.0002829290845006338 0
    vertex 0.00430028256073021 -0.0007452145528262185 0
  endloop
endfacet
facet normal 0 0 1
  outer loop
    vertex 0.00578 -0.002890000000000008 0
    vertex 0.004577927567844906 -0.003625559779030889 0
    vertex 0.00578 -0.004335000000000004 0
  endloop
endfacet
facet normal -0 0 1
  outer loop
    vertex 0.002890000000000008 0.00578 0
    vertex 0.003562170983143163 0.004705779501334686 0
    vertex 0.004335000000000004 0.00578 0
  endloop
endfacet
facet normal 0 0 1
  outer loop
    vertex -0.00578 0.002890000000000008 0
    vertex -0.004584513547858607 0.003544735200935662 0
    vertex -0.00578 0.004335000000000004 0
  endloop
endfacet
facet normal 0 0 1
  outer loop
    vertex -0.003611505747718629 0.0005201141660557242 0
    vertex -0.004802767293694383 0.0007225000000000067 0
    vertex -0.00450001970312798 -0.0007409366175080046 0
  endloop
endfacet
facet normal 0 0 1
  outer loop
    vertex -0.002890000000000008 -0.00578 0
    vertex -0.003570498403154665 -0.004591320879253112 0
    vertex -0.004335000000000004 -0.00578 0
  endloop
endfacet
facet normal 0 0 1
  outer loop
    vertex -0.002197650172804226 -0.004542906107432567 0
    vertex -0.003570498403154665 -0.004591320879253112 0
    vertex -0.002890000000000008 -0.00578 0
  endloop
endfacet
facet normal 0 0 1
  outer loop
    vertex -0.00450001970312798 -0.0007409366175080046 0
    vertex -0.004885977869681814 -0.002167499999999996 0
    vertex -0.00372378558405826 -0.002043645604516722 0
  endloop
endfacet
facet normal 0 0 1
  outer loop
    vertex 0.004484852099439406 -0.00229281857105101 0
    vertex 0.004577927567844906 -0.003625559779030889 0
    vertex 0.00578 -0.002890000000000008 0
  endloop
endfacet
facet normal 0 0 1
  outer loop
    vertex 0.002163906389215687 0.004572058768840782 0
    vertex 0.003562170983143163 0.004705779501334686 0
    vertex 0.002890000000000008 0.00578 0
  endloop
endfacet
facet normal 0 0 1
  outer loop
    vertex -0.00441288336022329 0.001956252258550021 0
    vertex -0.004584513547858607 0.003544735200935662 0
    vertex -0.00578 0.002890000000000008 0
  endloop
endfacet
facet normal -0 0 1
  outer loop
    vertex -0.004514351178298535 -0.00342936572169094 0
    vertex -0.003570498403154665 -0.004591320879253112 0
    vertex -0.003033711675419365 -0.003316295268263362 0
  endloop
endfacet
facet normal -0 0 1
  outer loop
    vertex 0.002167499999999988 0.0004770335423425756 0
    vertex 0.003375212878998677 0.0002829290845006338 0
    vertex 0.003087229294958028 0.001620871367034618 0
  endloop
endfacet
facet normal -0 0 1
  outer loop
    vertex -0.00578 0.001445000000000007 0
    vertex -0.004802767293694383 0.0007225000000000067 0
    vertex -0.00441288336022329 0.001956252258550021 0
  endloop
endfacet
facet normal 0 0 1
  outer loop
    vertex -0.00450001970312798 -0.0007409366175080046 0
    vertex -0.004802767293694383 0.0007225000000000067 0
    vertex -0.00578 6.071532165918825e-18 0
  endloop
endfacet
facet normal 0 -0 1
  outer loop
    vertex 0.003114365403267178 -0.00315834674533779 0
    vertex 0.003366356657460722 -0.001858910496679219 0
    vertex 0.002167499999999995 -0.002025779874594455 0
  endloop
endfacet
facet normal 0 0 1
  outer loop
    vertex -0.004514351178298535 -0.00342936572169094 0
    vertex -0.004885977869681814 -0.002167499999999996 0
    vertex -0.00578 -0.002889999999999997 0
  endloop
endfacet
facet normal -0 0 1
  outer loop
    vertex -0.00578 -0.001444999999999996 0
    vertex -0.004885977869681814 -0.002167499999999996 0
    vertex -0.00450001970312798 -0.0007409366175080046 0
  endloop
endfacet
facet normal 0 0 1
  outer loop
    vertex -0.004335000000000004 -0.00578 0
    vertex -0.004722186583062971 -0.004722186583062969 0
    vertex -0.00578 -0.00578 0
  endloop
endfacet
facet normal 0 0 1
  outer loop
    vertex -0.00578 -0.00578 0
    vertex -0.004722186583062971 -0.004722186583062969 0
    vertex -0.00578 -0.004334999999999999 0
  endloop
endfacet
facet normal 0 0 1
  outer loop
    vertex 0.00578 -0.00578 0
    vertex 0.004722186583062969 -0.004722186583062971 0
    vertex 0.004334999999999999 -0.00578 0
  endloop
endfacet
facet normal 0 0 1
  outer loop
    vertex 0.00578 -0.004335000000000004 0
    vertex 0.004722186583062969 -0.004722186583062971 0
    vertex 0.00578 -0.00578 0
  endloop
endfacet
facet normal 0 0 1
  outer loop
    vertex 0.00578 0.00578 0
    vertex 0.004722186583062971 0.004722186583062969 0
    vertex 0.00578 0.004334999999999999 0
  endloop
endfacet
facet normal -0 0 1
  outer loop
    vertex 0.004335000000000004 0.00578 0
    vertex 0.004722186583062971 0.004722186583062969 0
    vertex 0.00578 0.00578 0
  endloop
endfacet
facet normal -0 0 1
  outer loop
    vertex -0.00578 0.00578 0
    vertex -0.004722186583062969 0.004722186583062971 0
    vertex -0.004334999999999999 0.00578 0
  endloop
endfacet
facet normal 0 0 1
  outer loop
    vertex -0.00578 0.004335000000000004 0
    vertex -0.004722186583062969 0.004722186583062971 0
    vertex -0.00578 0.00578 0
  endloop
endfacet
facet normal 0 0 1
  outer loop
    vertex 0.004383904155011769 0.003619327825871882 0
    vertex 0.00340217644069525 0.002823955293445614 0
    vertex 0.004504406191264637 0.002201618689474428 0
  endloop
endfacet
facet normal 0 -0 1
  outer loop
    vertex 0.003087229294958028 0.001620871367034618 0
    vertex 0.00340217644069525 0.002823955293445614 0
    vertex 0.002157313790673267 0.00291685475461466 0
  endloop
endfacet
facet normal 0 0 1
  outer loop
    vertex -0.002157965834003016 0.002917378468058757 0
    vertex -0.003455411860060885 0.00288915207939924 0
    vertex -0.002890000000000017 0.001728440250811084 0
  endloop
endfacet
facet normal 0 -0 1
  outer loop
    vertex -0.00441288336022329 0.001956252258550021 0
    vertex -0.003455411860060885 0.00288915207939924 0
    vertex -0.004584513547858607 0.003544735200935662 0
  endloop
endfacet
facet normal 0 -0 1
  outer loop
    vertex 0.002840678383949717 -0.0007644427327265069 0
    vertex 0.003375212878998677 0.0002829290845006338 0
    vertex 0.002167499999999988 0.0004770335423425756 0
  endloop
endfacet
facet normal 0 0 1
  outer loop
    vertex -0.00578 6.071532165918825e-18 0
    vertex -0.004802767293694383 0.0007225000000000067 0
    vertex -0.00578 0.001445000000000007 0
  endloop
endfacet
facet normal 0 0 1
  outer loop
    vertex 0.002167499999999995 -0.002025779874594455 0
    vertex 0.003366356657460722 -0.001858910496679219 0
    vertex 0.002840678383949717 -0.0007644427327265069 0
  endloop
endfacet
facet normal 0 0 1
  outer loop
    vertex 0.004577927567844906 -0.003625559779030889 0
    vertex 0.004722186583062969 -0.004722186583062971 0
    vertex 0.00578 -0.004335000000000004 0
  endloop
endfacet
facet normal 0 0 1
  outer loop
    vertex 0.003562170983143163 0.004705779501334686 0
    vertex 0.004722186583062971 0.004722186583062969 0
    vertex 0.004335000000000004 0.00578 0
  endloop
endfacet
facet normal 0 0 1
  outer loop
    vertex -0.004584513547858607 0.003544735200935662 0
    vertex -0.004722186583062969 0.004722186583062971 0
    vertex -0.00578 0.004335000000000004 0
  endloop
endfacet
facet normal 0 0 1
  outer loop
    vertex -0.00578 -0.002889999999999997 0
    vertex -0.004885977869681814 -0.002167499999999996 0
    vertex -0.00578 -0.001444999999999996 0
  endloop
endfacet
facet normal 0 -0 1
  outer loop
    vertex 0.004334999999999999 -0.00578 0
    vertex 0.004722186583062969 -0.004722186583062971 0
    vertex 0.003606377001389131 -0.004556414394894322 0
  endloop
endfacet
facet normal 0 0 1
  outer loop
    vertex 0.00578 0.004334999999999999 0
    vertex 0.004722186583062971 0.004722186583062969 0
    vertex 0.004383904155011769 0.003619327825871882 0
  endloop
endfacet
facet normal 0 0 1
  outer loop
    vertex -0.004334999999999999 0.00578 0
    vertex -0.004722186583062969 0.004722186583062971 0
    vertex -0.003612499999999998 0.004528593291531486 0
  endloop
endfacet
facet normal -0 0 1
  outer loop
    vertex -0.00578 -0.004334999999999999 0
    vertex -0.004722186583062971 -0.004722186583062969 0
    vertex -0.004514351178298535 -0.00342936572169094 0
  endloop
endfacet
facet normal 0 0 1
  outer loop
    vertex -0.003570498403154665 -0.004591320879253112 0
    vertex -0.004722186583062971 -0.004722186583062969 0
    vertex -0.004335000000000004 -0.00578 0
  endloop
endfacet
facet normal 0 0 1
  outer loop
    vertex -0.001444999999999996 0.003754220125405554 0
    vertex -0.002772534817351593 0.003753451460055031 0
    vertex -0.002157965834003016 0.002917378468058757 0
  endloop
endfacet
facet normal -0 0 1
  outer loop
    vertex 0.0007225000000000055 0.004528593291531484 0
    vertex 0.001444999999999982 0.003754220125405532 0
    vertex 0.002163906389215687 0.004572058768840782 0
  endloop
endfacet
facet normal 0 0 1
  outer loop
    vertex 0.0007224999999999837 0.002979846959279602 0
    vertex -3.121178287908986e-18 0.003754220125405546 0
    vertex -0.0007225000000000178 0.002979846959279602 0
  endloop
endfacet
facet normal 0 0 1
  outer loop
    vertex -0.0007225000000000178 0.002979846959279602 0
    vertex -0.001444999999999996 0.003754220125405554 0
    vertex -0.002157965834003016 0.002917378468058757 0
  endloop
endfacet
facet normal 0 0 1
  outer loop
    vertex -3.121178287908986e-18 0.003754220125405546 0
    vertex -0.001444999999999996 0.003754220125405554 0
    vertex -0.0007225000000000178 0.002979846959279602 0
  endloop
endfacet
facet normal -0 0 1
  outer loop
    vertex -0.002167499999999996 0.004528593291531485 0
    vertex -0.001444999999999996 0.003754220125405554 0
    vertex -0.0007224999999999947 0.004528593291531486 0
  endloop
endfacet
facet normal 0 0 1
  outer loop
    vertex 0.002157313790673267 0.00291685475461466 0
    vertex 0.001444999999999982 0.003754220125405532 0
    vertex 0.0007224999999999837 0.002979846959279602 0
  endloop
endfacet
facet normal 0 0 1
  outer loop
    vertex -0.0007224999999999947 0.004528593291531486 0
    vertex -0.001444999999999996 0.003754220125405554 0
    vertex -3.121178287908986e-18 0.003754220125405546 0
  endloop
endfacet
facet normal 0 0 1
  outer loop
    vertex -0.0007224999999999947 0.004528593291531486 0
    vertex -3.121178287908986e-18 0.003754220125405546 0
    vertex 0.0007225000000000055 0.004528593291531484 0
  endloop
endfacet
facet normal -0 0 1
  outer loop
    vertex -3.121178287908986e-18 0.003754220125405546 0
    vertex 0.001444999999999982 0.003754220125405532 0
    vertex 0.0007225000000000055 0.004528593291531484 0
  endloop
endfacet
facet normal 0 -0 1
  outer loop
    vertex 0.0007224999999999837 0.002979846959279602 0
    vertex 0.001444999999999982 0.003754220125405532 0
    vertex -3.121178287908986e-18 0.003754220125405546 0
  endloop
endfacet
facet normal 0 0 1
  outer loop
    vertex -0.002167499999999996 0.004528593291531485 0
    vertex -0.002772534817351593 0.003753451460055031 0
    vertex -0.001444999999999996 0.003754220125405554 0
  endloop
endfacet
facet normal 0 0 1
  outer loop
    vertex -0.003612499999999998 0.004528593291531486 0
    vertex -0.002772534817351593 0.003753451460055031 0
    vertex -0.002167499999999996 0.004528593291531485 0
  endloop
endfacet
facet normal -0 0 1
  outer loop
    vertex 0.003606377001389131 -0.004556414394894322 0
    vertex 0.004722186583062969 -0.004722186583062971 0
    vertex 0.004577927567844906 -0.003625559779030889 0
  endloop
endfacet
facet normal 0 -0 1
  outer loop
    vertex 0.004383904155011769 0.003619327825871882 0
    vertex 0.004722186583062971 0.004722186583062969 0
    vertex 0.003562170983143163 0.004705779501334686 0
  endloop
endfacet
facet normal 0 0 1
  outer loop
    vertex -0.003612499999999998 0.004528593291531486 0
    vertex -0.004722186583062969 0.004722186583062971 0
    vertex -0.004584513547858607 0.003544735200935662 0
  endloop
endfacet
facet normal 0 -0 1
  outer loop
    vertex 0.002157313790673267 0.00291685475461466 0
    vertex 0.002878028771568545 0.003761103830232481 0
    vertex 0.001444999999999982 0.003754220125405532 0
  endloop
endfacet
facet normal 0 0 1
  outer loop
    vertex 0.001444999999999982 0.003754220125405532 0
    vertex 0.002878028771568545 0.003761103830232481 0
    vertex 0.002163906389215687 0.004572058768840782 0
  endloop
endfacet
facet normal 0 0 1
  outer loop
    vertex -0.004514351178298535 -0.00342936572169094 0
    vertex -0.004722186583062971 -0.004722186583062969 0
    vertex -0.003570498403154665 -0.004591320879253112 0
  endloop
endfacet
facet normal -0 0 1
  outer loop
    vertex 0.002163906389215687 0.004572058768840782 0
    vertex 0.002878028771568545 0.003761103830232481 0
    vertex 0.003562170983143163 0.004705779501334686 0
  endloop
endfacet
facet normal 0 0 1
  outer loop
    vertex -0.002157965834003016 0.002917378468058757 0
    vertex -0.002772534817351593 0.003753451460055031 0
    vertex -0.003455411860060885 0.00288915207939924 0
  endloop
endfacet
facet normal 0 0 1
  outer loop
    vertex 0.00340217644069525 0.002823955293445614 0
    vertex 0.002878028771568545 0.003761103830232481 0
    vertex 0.002157313790673267 0.00291685475461466 0
  endloop
endfacet
endsolid Created by Gmsh
