solid Created by Gmsh
facet normal 0 0 1
  outer loop
    vertex -0.005249407448661072 -0.002512500000000019 0
    vertex -0.005306038975937486 -0.00418347619163869 0
    vertex -0.003554709871328469 -0.003645361472731478 0
  endloop
endfacet
facet normal -0 0 1
  outer loop
    vertex -0.005249407448661072 -0.002512500000000019 0
    vertex -0.003554709871328469 -0.003645361472731478 0
    vertex -0.003715379394690922 -0.002066530841272415 0
  endloop
endfacet
facet normal 0 0 1
  outer loop
    vertex -0.00342790552510439 0.001906335940841889 0
    vertex -0.005249407448661063 0.002512499999999985 0
    vertex -0.005075127511236177 0.0009229763170873886 0
  endloop
endfacet
facet normal -0 0 1
  outer loop
    vertex 0.003350000000000019 0.002003555308033611 0
    vertex 0.004186547886072414 0.0006029667262243729 0
    vertex 0.005115280019635993 0.002267628050568372 0
  endloop
endfacet
facet normal -0 0 1
  outer loop
    vertex -0.005075127511236177 0.0009229763170873886 0
    vertex -0.003717463392033438 0.000355807300090434 0
    vertex -0.00342790552510439 0.001906335940841889 0
  endloop
endfacet
facet normal 0 0 1
  outer loop
    vertex 0.004186547886072414 0.0006029667262243729 0
    vertex 0.005567221603417362 0.0008375000000000225 0
    vertex 0.005115280019635993 0.002267628050568372 0
  endloop
endfacet
facet normal 0 0 1
  outer loop
    vertex -0.0067 -0.001675000000000023 0
    vertex -0.004862551079027006 -0.0008280965122381097 0
    vertex -0.0067 -2.168404344971009e-17 0
  endloop
endfacet
facet normal 0 0 1
  outer loop
    vertex 0.004316498860413561 -0.00236893175610069 0
    vertex 0.003516586198150484 -0.003844148494353719 0
    vertex 0.005232898424671316 -0.003975216320991222 0
  endloop
endfacet
facet normal 0 0 1
  outer loop
    vertex 0.003516586198150484 -0.003844148494353719 0
    vertex 0.001721224059548965 -0.003820004692294947 0
    vertex 0.002547449162247122 -0.005265998429030827 0
  endloop
endfacet
facet normal 0 -0 1
  outer loop
    vertex 0.005232898424671316 -0.003975216320991222 0
    vertex 0.005663676769354358 -0.002512499999999987 0
    vertex 0.004316498860413561 -0.00236893175610069 0
  endloop
endfacet
facet normal 0 -0 1
  outer loop
    vertex -0.005249407448661072 -0.002512500000000019 0
    vertex -0.004862551079027006 -0.0008280965122381097 0
    vertex -0.0067 -0.001675000000000023 0
  endloop
endfacet
facet normal -0 0 1
  outer loop
    vertex -0.0067 -2.168404344971009e-17 0
    vertex -0.004862551079027006 -0.0008280965122381097 0
    vertex -0.005075127511236177 0.0009229763170873886 0
  endloop
endfacet
facet normal -0 0 1
  outer loop
    vertex 0.003350000000000018 -0.0008976297946442565 0
    vertex 0.004316498860413561 -0.00236893175610069 0
    vertex 0.005216285815044547 -0.0008588711656234556 0
  endloop
endfacet
facet normal 0 0 1
  outer loop
    vertex 0.004186547886072414 0.0006029667262243729 0
    vertex 0.003350000000000018 -0.0008976297946442565 0
    vertex 0.005216285815044547 -0.0008588711656234556 0
  endloop
endfacet
facet normal 0 0 1
  outer loop
    vertex 0.002660114208358008 -0.002440368041238617 0
    vertex 0.001708839510244456 -0.0009163020761809824 0
    vertex 0.0008704646630495995 -0.002368454999232423 0
  endloop
endfacet
facet normal 0 0 1
  outer loop
    vertex 0.002660114208358008 -0.002440368041238617 0
    vertex 0.001721224059548965 -0.003820004692294947 0
    vertex 0.003516586198150484 -0.003844148494353719 0
  endloop
endfacet
facet normal 0 0 1
  outer loop
    vertex -0.003554709871328469 -0.003645361472731478 0
    vertex -0.005306038975937486 -0.00418347619163869 0
    vertex -0.004180402406454523 -0.005281656824531478 0
  endloop
endfacet
facet normal 0 0 1
  outer loop
    vertex -0.005075127511236177 0.0009229763170873886 0
    vertex -0.004862551079027006 -0.0008280965122381097 0
    vertex -0.003717463392033438 0.000355807300090434 0
  endloop
endfacet
facet normal 0 0 1
  outer loop
    vertex 0.003350000000000018 -0.0008976297946442565 0
    vertex 0.001708839510244456 -0.0009163020761809824 0
    vertex 0.002660114208358008 -0.002440368041238617 0
  endloop
endfacet
facet normal 0 0 1
  outer loop
    vertex 0.0008704646630495995 -0.002368454999232423 0
    vertex 0.001721224059548965 -0.003820004692294947 0
    vertex 0.002660114208358008 -0.002440368041238617 0
  endloop
endfacet
facet normal -0 0 1
  outer loop
    vertex -0.004862551079027006 -0.0008280965122381097 0
    vertex -0.00307153690749959 -0.0008803010546760575 0
    vertex -0.003717463392033438 0.000355807300090434 0
  endloop
endfacet
facet normal 0 -0 1
  outer loop
    vertex -0.003715379394690922 -0.002066530841272415 0
    vertex -0.00307153690749959 -0.0008803010546760575 0
    vertex -0.004862551079027006 -0.0008280965122381097 0
  endloop
endfacet
facet normal 0 0 1
  outer loop
    vertex -0.00342790552510439 0.001906335940841889 0
    vertex -0.003917186945413541 0.003265724928761834 0
    vertex -0.005249407448661063 0.002512499999999985 0
  endloop
endfacet
facet normal 0 0 1
  outer loop
    vertex 0.005115280019635993 0.002267628050568372 0
    vertex 0.004005408211489265 0.003349017116258641 0
    vertex 0.003350000000000019 0.002003555308033611 0
  endloop
endfacet
facet normal 0 0 1
  outer loop
    vertex 0.003350000000000018 -0.0008976297946442565 0
    vertex 0.002660114208358008 -0.002440368041238617 0
    vertex 0.004316498860413561 -0.00236893175610069 0
  endloop
endfacet
facet normal 0 0 1
  outer loop
    vertex 0.004187499999999992 0.005249407448661061 0
    vertex 0.004005408211489265 0.003349017116258641 0
    vertex 0.005314228507033336 0.004108949108351037 0
  endloop
endfacet
facet normal 0 0 1
  outer loop
    vertex 0.004187499999999992 0.005249407448661061 0
    vertex 0.003213844845358414 0.004350889271485078 0
    vertex 0.004005408211489265 0.003349017116258641 0
  endloop
endfacet
facet normal 0 -0 1
  outer loop
    vertex -0.003554709871328469 -0.003645361472731478 0
    vertex -0.002316200206267176 -0.002407671180098499 0
    vertex -0.003715379394690922 -0.002066530841272415 0
  endloop
endfacet
facet normal 0 0 1
  outer loop
    vertex -0.005249407448661072 -0.002512500000000019 0
    vertex -0.003715379394690922 -0.002066530841272415 0
    vertex -0.004862551079027006 -0.0008280965122381097 0
  endloop
endfacet
facet normal -0 0 1
  outer loop
    vertex 0.002660114208358008 -0.002440368041238617 0
    vertex 0.003516586198150484 -0.003844148494353719 0
    vertex 0.004316498860413561 -0.00236893175610069 0
  endloop
endfacet
facet normal -0 0 1
  outer loop
    vertex 0.002547449162247122 -0.005265998429030827 0
    vertex 0.004138813027878245 -0.005322119358303778 0
    vertex 0.003516586198150484 -0.003844148494353719 0
  endloop
endfacet
facet normal 0 0 1
  outer loop
    vertex 0.001721224059548965 -0.003820004692294947 0
    vertex 0.000847897748833598 -0.005254344606662046 0
    vertex 0.002547449162247122 -0.005265998429030827 0
  endloop
endfacet
facet normal 0 0 1
  outer loop
    vertex 0.001675000000000023 -0.0067 0
    vertex 0.000847897748833598 -0.005254344606662046 0
    vertex 2.168404344971009e-17 -0.0067 0
  endloop
endfacet
facet normal 0 0 1
  outer loop
    vertex 0.002547449162247122 -0.005265998429030827 0
    vertex 0.000847897748833598 -0.005254344606662046 0
    vertex 0.001675000000000023 -0.0067 0
  endloop
endfacet
facet normal 0 0 1
  outer loop
    vertex 6.167868406029786e-06 -0.003802506249187804 0
    vertex 0.000847897748833598 -0.005254344606662046 0
    vertex 0.001721224059548965 -0.003820004692294947 0
  endloop
endfacet
facet normal 0 0 1
  outer loop
    vertex 0.003349999999999989 0.0067 0
    vertex 0.002512499999999984 0.005249407448661063 0
    vertex 0.004187499999999992 0.005249407448661061 0
  endloop
endfacet
facet normal -0 0 1
  outer loop
    vertex -0.0067 0.003349999999999989 0
    vertex -0.005249407448661063 0.002512499999999985 0
    vertex -0.005081688207366586 0.004195414607844567 0
  endloop
endfacet
facet normal 0 -0 1
  outer loop
    vertex -0.003349999999999989 -0.0067 0
    vertex -0.002511317067742407 -0.005254782344639466 0
    vertex -0.004180402406454523 -0.005281656824531478 0
  endloop
endfacet
facet normal 0 0 1
  outer loop
    vertex -0.0008374999999999817 -0.005249407448661063 0
    vertex -0.001637992789563915 -0.00382096300851619 0
    vertex -0.002511317067742407 -0.005254782344639466 0
  endloop
endfacet
facet normal 0 0 1
  outer loop
    vertex -0.002511317067742407 -0.005254782344639466 0
    vertex -0.003554709871328469 -0.003645361472731478 0
    vertex -0.004180402406454523 -0.005281656824531478 0
  endloop
endfacet
facet normal 0 0 1
  outer loop
    vertex -0.003349999999999989 -0.0067 0
    vertex -0.004180402406454523 -0.005281656824531478 0
    vertex -0.005024999999999995 -0.0067 0
  endloop
endfacet
facet normal 0 -0 1
  outer loop
    vertex 2.168404344971009e-17 -0.0067 0
    vertex 0.000847897748833598 -0.005254344606662046 0
    vertex -0.0008374999999999817 -0.005249407448661063 0
  endloop
endfacet
facet normal 0 0 1
  outer loop
    vertex 0.0067 -0.003349999999999989 0
    vertex 0.005232898424671316 -0.003975216320991222 0
    vertex 0.0067 -0.005024999999999995 0
  endloop
endfacet
facet normal -0 0 1
  outer loop
    vertex 0.003349999999999989 0.0067 0
    vertex 0.004187499999999992 0.005249407448661061 0
    vertex 0.005024999999999995 0.0067 0
  endloop
endfacet
facet normal 0 0 1
  outer loop
    vertex -2.168404344971009e-17 0.0067 0
    vertex -0.0008375000000000255 0.005249407448661072 0
    vertex 0.0008374999999999813 0.005249407448661063 0
  endloop
endfacet
facet normal 0 0 1
  outer loop
    vertex -0.0067 0.003349999999999989 0
    vertex -0.005081688207366586 0.004195414607844567 0
    vertex -0.0067 0.005024999999999995 0
  endloop
endfacet
facet normal 0 0 1
  outer loop
    vertex 2.168404344971009e-17 -0.0067 0
    vertex -0.0008374999999999817 -0.005249407448661063 0
    vertex -0.001674999999999985 -0.0067 0
  endloop
endfacet
facet normal 0 0 1
  outer loop
    vertex -0.0008374999999999817 -0.005249407448661063 0
    vertex -0.002511317067742407 -0.005254782344639466 0
    vertex -0.001674999999999985 -0.0067 0
  endloop
endfacet
facet normal 0 0 1
  outer loop
    vertex 0.0067 2.168404344971009e-17 0
    vertex 0.005216285815044547 -0.0008588711656234556 0
    vertex 0.0067 -0.001674999999999985 0
  endloop
endfacet
facet normal -0 0 1
  outer loop
    vertex -2.168404344971009e-17 0.0067 0
    vertex 0.0008374999999999813 0.005249407448661063 0
    vertex 0.001674999999999985 0.0067 0
  endloop
endfacet
facet normal 0 0 1
  outer loop
    vertex -0.0067 -2.168404344971009e-17 0
    vertex -0.005075127511236177 0.0009229763170873886 0
    vertex -0.0067 0.001674999999999985 0
  endloop
endfacet
facet normal 0 -0 1
  outer loop
    vertex -0.0008374999999999817 -0.005249407448661063 0
    vertex 6.167868406029786e-06 -0.003802506249187804 0
    vertex -0.001637992789563915 -0.00382096300851619 0
  endloop
endfacet
facet normal -0 0 1
  outer loop
    vertex -0.0008374999999999817 -0.005249407448661063 0
    vertex 0.000847897748833598 -0.005254344606662046 0
    vertex 6.167868406029786e-06 -0.003802506249187804 0
  endloop
endfacet
facet normal 0 0 1
  outer loop
    vertex -0.001637992789563915 -0.00382096300851619 0
    vertex -0.003554709871328469 -0.003645361472731478 0
    vertex -0.002511317067742407 -0.005254782344639466 0
  endloop
endfacet
facet normal 0 -0 1
  outer loop
    vertex 0.002515015702113553 0.0005536408235029897 0
    vertex 0.003350000000000019 0.002003555308033611 0
    vertex 0.001676696840771684 0.002004063279194612 0
  endloop
endfacet
facet normal -0 0 1
  outer loop
    vertex 0.001674999999999985 0.0067 0
    vertex 0.002512499999999984 0.005249407448661063 0
    vertex 0.003349999999999989 0.0067 0
  endloop
endfacet
facet normal 0 0 1
  outer loop
    vertex -0.0067 0.001674999999999985 0
    vertex -0.005249407448661063 0.002512499999999985 0
    vertex -0.0067 0.003349999999999989 0
  endloop
endfacet
facet normal 0 0 1
  outer loop
    vertex 1.45394145551612e-05 0.002008358115539447 0
    vertex -0.001614194365288854 0.002035167100065577 0
    vertex -0.0007636608845786798 0.0005782191720408134 0
  endloop
endfacet
facet normal 0 0 1
  outer loop
    vertex -0.0008374999999999786 0.003454147859372548 0
    vertex -0.002490810229411565 0.00335461706007815 0
    vertex -0.001614194365288854 0.002035167100065577 0
  endloop
endfacet
facet normal 0 0 1
  outer loop
    vertex 6.167868406029786e-06 -0.003802506249187804 0
    vertex -0.0007934940984664969 -0.002373781218357478 0
    vertex -0.001637992789563915 -0.00382096300851619 0
  endloop
endfacet
facet normal -0 0 1
  outer loop
    vertex 0.0008374999999999813 0.005249407448661063 0
    vertex 0.002512499999999984 0.005249407448661063 0
    vertex 0.001674999999999985 0.0067 0
  endloop
endfacet
facet normal -0 0 1
  outer loop
    vertex 6.167868406029786e-06 -0.003802506249187804 0
    vertex 0.001721224059548965 -0.003820004692294947 0
    vertex 0.0008704646630495995 -0.002368454999232423 0
  endloop
endfacet
facet normal 0 -0 1
  outer loop
    vertex 0.0008508973719095652 0.0005565231863835529 0
    vertex 0.001676696840771684 0.002004063279194612 0
    vertex 1.45394145551612e-05 0.002008358115539447 0
  endloop
endfacet
facet normal 0 0 1
  outer loop
    vertex 0.001676696840771684 0.002004063279194612 0
    vertex 0.0008375000000000212 0.003454147859372547 0
    vertex 1.45394145551612e-05 0.002008358115539447 0
  endloop
endfacet
facet normal 0 0 1
  outer loop
    vertex 0.002515015702113553 0.0005536408235029897 0
    vertex 0.004186547886072414 0.0006029667262243729 0
    vertex 0.003350000000000019 0.002003555308033611 0
  endloop
endfacet
facet normal 0 0 1
  outer loop
    vertex -0.001674999999999985 -0.0067 0
    vertex -0.002511317067742407 -0.005254782344639466 0
    vertex -0.003349999999999989 -0.0067 0
  endloop
endfacet
facet normal 0 0 1
  outer loop
    vertex -0.005075127511236177 0.0009229763170873886 0
    vertex -0.005249407448661063 0.002512499999999985 0
    vertex -0.0067 0.001674999999999985 0
  endloop
endfacet
facet normal 0 -0 1
  outer loop
    vertex 6.167868406029786e-06 -0.003802506249187804 0
    vertex 0.0008704646630495995 -0.002368454999232423 0
    vertex -0.0007934940984664969 -0.002373781218357478 0
  endloop
endfacet
facet normal 0 0 1
  outer loop
    vertex 6.54511603599357e-06 -0.0009015236318571413 0
    vertex -0.0007636608845786798 0.0005782191720408134 0
    vertex -0.001514965701798465 -0.0009018089946943666 0
  endloop
endfacet
facet normal 0 -0 1
  outer loop
    vertex 6.54511603599357e-06 -0.0009015236318571413 0
    vertex 0.0008508973719095652 0.0005565231863835529 0
    vertex -0.0007636608845786798 0.0005782191720408134 0
  endloop
endfacet
facet normal -0 0 1
  outer loop
    vertex 0.0008508973719095652 0.0005565231863835529 0
    vertex 0.002515015702113553 0.0005536408235029897 0
    vertex 0.001676696840771684 0.002004063279194612 0
  endloop
endfacet
facet normal 0 0 1
  outer loop
    vertex 1.45394145551612e-05 0.002008358115539447 0
    vertex -0.0008374999999999786 0.003454147859372548 0
    vertex -0.001614194365288854 0.002035167100065577 0
  endloop
endfacet
facet normal 0 0 1
  outer loop
    vertex -0.002490810229411565 0.00335461706007815 0
    vertex -0.00342790552510439 0.001906335940841889 0
    vertex -0.001614194365288854 0.002035167100065577 0
  endloop
endfacet
facet normal 0 0 1
  outer loop
    vertex 0.003350000000000019 0.002003555308033611 0
    vertex 0.002501543066828304 0.003381772382957842 0
    vertex 0.001676696840771684 0.002004063279194612 0
  endloop
endfacet
facet normal -0 0 1
  outer loop
    vertex -0.001675000000000023 0.0067 0
    vertex -0.0008375000000000255 0.005249407448661072 0
    vertex -2.168404344971009e-17 0.0067 0
  endloop
endfacet
facet normal 0 0 1
  outer loop
    vertex 6.54511603599357e-06 -0.0009015236318571413 0
    vertex -0.001514965701798465 -0.0009018089946943666 0
    vertex -0.0007934940984664969 -0.002373781218357478 0
  endloop
endfacet
facet normal -0 0 1
  outer loop
    vertex 6.54511603599357e-06 -0.0009015236318571413 0
    vertex 0.001708839510244456 -0.0009163020761809824 0
    vertex 0.0008508973719095652 0.0005565231863835529 0
  endloop
endfacet
facet normal 0 0 1
  outer loop
    vertex 0.0008508973719095652 0.0005565231863835529 0
    vertex 1.45394145551612e-05 0.002008358115539447 0
    vertex -0.0007636608845786798 0.0005782191720408134 0
  endloop
endfacet
facet normal 0 0 1
  outer loop
    vertex 0.0008508973719095652 0.0005565231863835529 0
    vertex 0.001708839510244456 -0.0009163020761809824 0
    vertex 0.002515015702113553 0.0005536408235029897 0
  endloop
endfacet
facet normal 0 -0 1
  outer loop
    vertex 0.0008704646630495995 -0.002368454999232423 0
    vertex 0.001708839510244456 -0.0009163020761809824 0
    vertex 6.54511603599357e-06 -0.0009015236318571413 0
  endloop
endfacet
facet normal 0 0 1
  outer loop
    vertex 0.002515015702113553 0.0005536408235029897 0
    vertex 0.001708839510244456 -0.0009163020761809824 0
    vertex 0.003350000000000018 -0.0008976297946442565 0
  endloop
endfacet
facet normal -0 0 1
  outer loop
    vertex -0.002508334395803664 0.005299791306441742 0
    vertex -0.0008375000000000255 0.005249407448661072 0
    vertex -0.001675000000000023 0.0067 0
  endloop
endfacet
facet normal 0 0 1
  outer loop
    vertex 0.0008704646630495995 -0.002368454999232423 0
    vertex 6.54511603599357e-06 -0.0009015236318571413 0
    vertex -0.0007934940984664969 -0.002373781218357478 0
  endloop
endfacet
facet normal 0 -0 1
  outer loop
    vertex 1.45394145551612e-05 0.002008358115539447 0
    vertex 0.0008375000000000212 0.003454147859372547 0
    vertex -0.0008374999999999786 0.003454147859372548 0
  endloop
endfacet
facet normal -0 0 1
  outer loop
    vertex 0.002515015702113553 0.0005536408235029897 0
    vertex 0.003350000000000018 -0.0008976297946442565 0
    vertex 0.004186547886072414 0.0006029667262243729 0
  endloop
endfacet
facet normal 0 0 1
  outer loop
    vertex 0.003350000000000015 -0.0067 0
    vertex 0.002547449162247122 -0.005265998429030827 0
    vertex 0.001675000000000023 -0.0067 0
  endloop
endfacet
facet normal 0 0 1
  outer loop
    vertex 0.0067 0.003350000000000015 0
    vertex 0.005115280019635993 0.002267628050568372 0
    vertex 0.0067 0.001675000000000023 0
  endloop
endfacet
facet normal -0 0 1
  outer loop
    vertex -0.003350000000000015 0.0067 0
    vertex -0.002508334395803664 0.005299791306441742 0
    vertex -0.001675000000000023 0.0067 0
  endloop
endfacet
facet normal 0 0 1
  outer loop
    vertex -0.0067 -0.003350000000000015 0
    vertex -0.005249407448661072 -0.002512500000000019 0
    vertex -0.0067 -0.001675000000000023 0
  endloop
endfacet
facet normal 0 0 1
  outer loop
    vertex 0.002501543066828304 0.003381772382957842 0
    vertex 0.0008375000000000212 0.003454147859372547 0
    vertex 0.001676696840771684 0.002004063279194612 0
  endloop
endfacet
facet normal 0 0 1
  outer loop
    vertex -0.003717463392033438 0.000355807300090434 0
    vertex -0.002302661671180537 0.0005664939001566113 0
    vertex -0.00342790552510439 0.001906335940841889 0
  endloop
endfacet
facet normal 0 0 1
  outer loop
    vertex -0.005081688207366586 0.004195414607844567 0
    vertex -0.003336123316524102 0.004359757035044578 0
    vertex -0.004129160136169416 0.005454796307775502 0
  endloop
endfacet
facet normal 0 -0 1
  outer loop
    vertex -0.003917186945413541 0.003265724928761834 0
    vertex -0.003336123316524102 0.004359757035044578 0
    vertex -0.005081688207366586 0.004195414607844567 0
  endloop
endfacet
facet normal 0 0 1
  outer loop
    vertex 0.0067 0.005025000000000008 0
    vertex 0.005314228507033336 0.004108949108351037 0
    vertex 0.0067 0.003350000000000015 0
  endloop
endfacet
facet normal -0 0 1
  outer loop
    vertex -0.005025000000000008 0.0067 0
    vertex -0.004129160136169416 0.005454796307775502 0
    vertex -0.003350000000000015 0.0067 0
  endloop
endfacet
facet normal 0 0 1
  outer loop
    vertex -0.0067 -0.005025000000000008 0
    vertex -0.005306038975937486 -0.00418347619163869 0
    vertex -0.0067 -0.003350000000000015 0
  endloop
endfacet
facet normal 0 -0 1
  outer loop
    vertex 0.005216285815044547 -0.0008588711656234556 0
    vertex 0.005567221603417362 0.0008375000000000225 0
    vertex 0.004186547886072414 0.0006029667262243729 0
  endloop
endfacet
facet normal 0 0 1
  outer loop
    vertex 0.005025000000000008 -0.0067 0
    vertex 0.004138813027878245 -0.005322119358303778 0
    vertex 0.003350000000000015 -0.0067 0
  endloop
endfacet
facet normal 0 -0 1
  outer loop
    vertex 0.003350000000000015 -0.0067 0
    vertex 0.004138813027878245 -0.005322119358303778 0
    vertex 0.002547449162247122 -0.005265998429030827 0
  endloop
endfacet
facet normal -0 0 1
  outer loop
    vertex 0.004316498860413561 -0.00236893175610069 0
    vertex 0.005663676769354358 -0.002512499999999987 0
    vertex 0.005216285815044547 -0.0008588711656234556 0
  endloop
endfacet
facet normal 0 0 1
  outer loop
    vertex 0.0067 0.003350000000000015 0
    vertex 0.005314228507033336 0.004108949108351037 0
    vertex 0.005115280019635993 0.002267628050568372 0
  endloop
endfacet
facet normal 0 0 1
  outer loop
    vertex -0.003350000000000015 0.0067 0
    vertex -0.004129160136169416 0.005454796307775502 0
    vertex -0.002508334395803664 0.005299791306441742 0
  endloop
endfacet
facet normal -0 0 1
  outer loop
    vertex -0.0067 -0.003350000000000015 0
    vertex -0.005306038975937486 -0.00418347619163869 0
    vertex -0.005249407448661072 -0.002512500000000019 0
  endloop
endfacet
facet normal 0 0 1
  outer loop
    vertex -0.002302661671180537 0.0005664939001566113 0
    vertex -0.00307153690749959 -0.0008803010546760575 0
    vertex -0.001514965701798465 -0.0009018089946943666 0
  endloop
endfacet
facet normal 0 0 1
  outer loop
    vertex 0.003516586198150484 -0.003844148494353719 0
    vertex 0.004138813027878245 -0.005322119358303778 0
    vertex 0.005232898424671316 -0.003975216320991222 0
  endloop
endfacet
facet normal 0 0 1
  outer loop
    vertex -0.001637992789563915 -0.00382096300851619 0
    vertex -0.002316200206267176 -0.002407671180098499 0
    vertex -0.003554709871328469 -0.003645361472731478 0
  endloop
endfacet
facet normal 0 0 1
  outer loop
    vertex -0.001514965701798465 -0.0009018089946943666 0
    vertex -0.002316200206267176 -0.002407671180098499 0
    vertex -0.0007934940984664969 -0.002373781218357478 0
  endloop
endfacet
facet normal 0 0 1
  outer loop
    vertex 0.0067 2.168404344971009e-17 0
    vertex 0.005567221603417362 0.0008375000000000225 0
    vertex 0.005216285815044547 -0.0008588711656234556 0
  endloop
endfacet
facet normal 0 0 1
  outer loop
    vertex 0.005115280019635993 0.002267628050568372 0
    vertex 0.005567221603417362 0.0008375000000000225 0
    vertex 0.0067 0.001675000000000023 0
  endloop
endfacet
facet normal -0 0 1
  outer loop
    vertex -0.00342790552510439 0.001906335940841889 0
    vertex -0.002302661671180537 0.0005664939001566113 0
    vertex -0.001614194365288854 0.002035167100065577 0
  endloop
endfacet
facet normal 0 0 1
  outer loop
    vertex -0.0007636608845786798 0.0005782191720408134 0
    vertex -0.002302661671180537 0.0005664939001566113 0
    vertex -0.001514965701798465 -0.0009018089946943666 0
  endloop
endfacet
facet normal 0 0 1
  outer loop
    vertex 0.005216285815044547 -0.0008588711656234556 0
    vertex 0.005663676769354358 -0.002512499999999987 0
    vertex 0.0067 -0.001674999999999985 0
  endloop
endfacet
facet normal 0 0 1
  outer loop
    vertex 0.0067 -0.003349999999999989 0
    vertex 0.005663676769354358 -0.002512499999999987 0
    vertex 0.005232898424671316 -0.003975216320991222 0
  endloop
endfacet
facet normal 0 0 1
  outer loop
    vertex -0.005024999999999995 -0.0067 0
    vertex -0.005473814897322124 -0.005473814897322127 0
    vertex -0.0067 -0.0067 0
  endloop
endfacet
facet normal 0 0 1
  outer loop
    vertex 0.0067 -0.005024999999999995 0
    vertex 0.005473814897322127 -0.005473814897322124 0
    vertex 0.0067 -0.0067 0
  endloop
endfacet
facet normal -0 0 1
  outer loop
    vertex 0.005024999999999995 0.0067 0
    vertex 0.005473814897322124 0.005473814897322127 0
    vertex 0.0067 0.0067 0
  endloop
endfacet
facet normal 0 0 1
  outer loop
    vertex -0.0067 0.005024999999999995 0
    vertex -0.005473814897322127 0.005473814897322124 0
    vertex -0.0067 0.0067 0
  endloop
endfacet
facet normal 0 0 1
  outer loop
    vertex -0.0067 -0.0067 0
    vertex -0.005473814897322124 -0.005473814897322127 0
    vertex -0.0067 -0.005025000000000008 0
  endloop
endfacet
facet normal 0 0 1
  outer loop
    vertex 0.0067 -0.0067 0
    vertex 0.005473814897322127 -0.005473814897322124 0
    vertex 0.005025000000000008 -0.0067 0
  endloop
endfacet
facet normal 0 0 1
  outer loop
    vertex 0.0067 0.0067 0
    vertex 0.005473814897322124 0.005473814897322127 0
    vertex 0.0067 0.005025000000000008 0
  endloop
endfacet
facet normal -0 0 1
  outer loop
    vertex -0.0067 0.0067 0
    vertex -0.005473814897322127 0.005473814897322124 0
    vertex -0.005025000000000008 0.0067 0
  endloop
endfacet
facet normal 0 0 1
  outer loop
    vertex -0.001514965701798465 -0.0009018089946943666 0
    vertex -0.00307153690749959 -0.0008803010546760575 0
    vertex -0.002316200206267176 -0.002407671180098499 0
  endloop
endfacet
facet normal 0 0 1
  outer loop
    vertex -0.005249407448661063 0.002512499999999985 0
    vertex -0.003917186945413541 0.003265724928761834 0
    vertex -0.005081688207366586 0.004195414607844567 0
  endloop
endfacet
facet normal 0 0 1
  outer loop
    vertex -0.002490810229411565 0.00335461706007815 0
    vertex -0.003917186945413541 0.003265724928761834 0
    vertex -0.00342790552510439 0.001906335940841889 0
  endloop
endfacet
facet normal 0 -0 1
  outer loop
    vertex 0.003350000000000019 0.002003555308033611 0
    vertex 0.004005408211489265 0.003349017116258641 0
    vertex 0.002501543066828304 0.003381772382957842 0
  endloop
endfacet
facet normal -0 0 1
  outer loop
    vertex -0.003717463392033438 0.000355807300090434 0
    vertex -0.00307153690749959 -0.0008803010546760575 0
    vertex -0.002302661671180537 0.0005664939001566113 0
  endloop
endfacet
facet normal 0 0 1
  outer loop
    vertex -0.0007934940984664969 -0.002373781218357478 0
    vertex -0.002316200206267176 -0.002407671180098499 0
    vertex -0.001637992789563915 -0.00382096300851619 0
  endloop
endfacet
facet normal 0 0 1
  outer loop
    vertex 0.005314228507033336 0.004108949108351037 0
    vertex 0.004005408211489265 0.003349017116258641 0
    vertex 0.005115280019635993 0.002267628050568372 0
  endloop
endfacet
facet normal 0 0 1
  outer loop
    vertex 0.0067 0.001675000000000023 0
    vertex 0.005567221603417362 0.0008375000000000225 0
    vertex 0.0067 2.168404344971009e-17 0
  endloop
endfacet
facet normal 0 0 1
  outer loop
    vertex -0.001614194365288854 0.002035167100065577 0
    vertex -0.002302661671180537 0.0005664939001566113 0
    vertex -0.0007636608845786798 0.0005782191720408134 0
  endloop
endfacet
facet normal 0 0 1
  outer loop
    vertex -0.002316200206267176 -0.002407671180098499 0
    vertex -0.00307153690749959 -0.0008803010546760575 0
    vertex -0.003715379394690922 -0.002066530841272415 0
  endloop
endfacet
facet normal 0 0 1
  outer loop
    vertex 0.0067 0.005025000000000008 0
    vertex 0.005473814897322124 0.005473814897322127 0
    vertex 0.005314228507033336 0.004108949108351037 0
  endloop
endfacet
facet normal 0 0 1
  outer loop
    vertex -0.005025000000000008 0.0067 0
    vertex -0.005473814897322127 0.005473814897322124 0
    vertex -0.004129160136169416 0.005454796307775502 0
  endloop
endfacet
facet normal -0 0 1
  outer loop
    vertex -0.0067 -0.005025000000000008 0
    vertex -0.005473814897322124 -0.005473814897322127 0
    vertex -0.005306038975937486 -0.00418347619163869 0
  endloop
endfacet
facet normal 0 0 1
  outer loop
    vertex 0.0067 -0.001674999999999985 0
    vertex 0.005663676769354358 -0.002512499999999987 0
    vertex 0.0067 -0.003349999999999989 0
  endloop
endfacet
facet normal 0 0 1
  outer loop
    vertex -0.004180402406454523 -0.005281656824531478 0
    vertex -0.005473814897322124 -0.005473814897322127 0
    vertex -0.005024999999999995 -0.0067 0
  endloop
endfacet
facet normal 0 0 1
  outer loop
    vertex 0.005232898424671316 -0.003975216320991222 0
    vertex 0.005473814897322127 -0.005473814897322124 0
    vertex 0.0067 -0.005024999999999995 0
  endloop
endfacet
facet normal 0 0 1
  outer loop
    vertex 0.004187499999999992 0.005249407448661061 0
    vertex 0.005473814897322124 0.005473814897322127 0
    vertex 0.005024999999999995 0.0067 0
  endloop
endfacet
facet normal 0 0 1
  outer loop
    vertex -0.005081688207366586 0.004195414607844567 0
    vertex -0.005473814897322127 0.005473814897322124 0
    vertex -0.0067 0.005024999999999995 0
  endloop
endfacet
facet normal 0 -0 1
  outer loop
    vertex 0.005025000000000008 -0.0067 0
    vertex 0.005473814897322127 -0.005473814897322124 0
    vertex 0.004138813027878245 -0.005322119358303778 0
  endloop
endfacet
facet normal 0 -0 1
  outer loop
    vertex 0.002501543066828304 0.003381772382957842 0
    vertex 0.003213844845358414 0.004350889271485078 0
    vertex 0.001675000000000023 0.004351777654016785 0
  endloop
endfacet
facet normal 0 0 1
  outer loop
    vertex 0.001675000000000023 0.004351777654016785 0
    vertex -1.444254386482556e-19 0.004351777654016807 0
    vertex 0.0008375000000000212 0.003454147859372547 0
  endloop
endfacet
facet normal 0 0 1
  outer loop
    vertex 0.0008374999999999813 0.005249407448661063 0
    vertex -1.444254386482556e-19 0.004351777654016807 0
    vertex 0.001675000000000023 0.004351777654016785 0
  endloop
endfacet
facet normal 0 0 1
  outer loop
    vertex -0.0008374999999999786 0.003454147859372548 0
    vertex -0.001675000000000022 0.00435177765401683 0
    vertex -0.002490810229411565 0.00335461706007815 0
  endloop
endfacet
facet normal 0 0 1
  outer loop
    vertex 0.0008374999999999813 0.005249407448661063 0
    vertex 0.001675000000000023 0.004351777654016785 0
    vertex 0.002512499999999984 0.005249407448661063 0
  endloop
endfacet
facet normal 0 0 1
  outer loop
    vertex 0.0008375000000000212 0.003454147859372547 0
    vertex -1.444254386482556e-19 0.004351777654016807 0
    vertex -0.0008374999999999786 0.003454147859372548 0
  endloop
endfacet
facet normal 0 0 1
  outer loop
    vertex -0.0008375000000000255 0.005249407448661072 0
    vertex -1.444254386482556e-19 0.004351777654016807 0
    vertex 0.0008374999999999813 0.005249407448661063 0
  endloop
endfacet
facet normal 0 -0 1
  outer loop
    vertex -0.0008374999999999786 0.003454147859372548 0
    vertex -1.444254386482556e-19 0.004351777654016807 0
    vertex -0.001675000000000022 0.00435177765401683 0
  endloop
endfacet
facet normal 0 0 1
  outer loop
    vertex 0.002501543066828304 0.003381772382957842 0
    vertex 0.001675000000000023 0.004351777654016785 0
    vertex 0.0008375000000000212 0.003454147859372547 0
  endloop
endfacet
facet normal 0 0 1
  outer loop
    vertex -0.002508334395803664 0.005299791306441742 0
    vertex -0.001675000000000022 0.00435177765401683 0
    vertex -0.0008375000000000255 0.005249407448661072 0
  endloop
endfacet
facet normal -0 0 1
  outer loop
    vertex -0.001675000000000022 0.00435177765401683 0
    vertex -1.444254386482556e-19 0.004351777654016807 0
    vertex -0.0008375000000000255 0.005249407448661072 0
  endloop
endfacet
facet normal -0 0 1
  outer loop
    vertex 0.001675000000000023 0.004351777654016785 0
    vertex 0.003213844845358414 0.004350889271485078 0
    vertex 0.002512499999999984 0.005249407448661063 0
  endloop
endfacet
facet normal 0 0 1
  outer loop
    vertex 0.002512499999999984 0.005249407448661063 0
    vertex 0.003213844845358414 0.004350889271485078 0
    vertex 0.004187499999999992 0.005249407448661061 0
  endloop
endfacet
facet normal 0 0 1
  outer loop
    vertex -0.005306038975937486 -0.00418347619163869 0
    vertex -0.005473814897322124 -0.005473814897322127 0
    vertex -0.004180402406454523 -0.005281656824531478 0
  endloop
endfacet
facet normal 0 -0 1
  outer loop
    vertex 0.005314228507033336 0.004108949108351037 0
    vertex 0.005473814897322124 0.005473814897322127 0
    vertex 0.004187499999999992 0.005249407448661061 0
  endloop
endfacet
facet normal 0 0 1
  outer loop
    vertex -0.004129160136169416 0.005454796307775502 0
    vertex -0.005473814897322127 0.005473814897322124 0
    vertex -0.005081688207366586 0.004195414607844567 0
  endloop
endfacet
facet normal 0 0 1
  outer loop
    vertex -0.001675000000000022 0.00435177765401683 0
    vertex -0.003336123316524102 0.004359757035044578 0
    vertex -0.002490810229411565 0.00335461706007815 0
  endloop
endfacet
facet normal 0 0 1
  outer loop
    vertex -0.002508334395803664 0.005299791306441742 0
    vertex -0.003336123316524102 0.004359757035044578 0
    vertex -0.001675000000000022 0.00435177765401683 0
  endloop
endfacet
facet normal -0 0 1
  outer loop
    vertex 0.004138813027878245 -0.005322119358303778 0
    vertex 0.005473814897322127 -0.005473814897322124 0
    vertex 0.005232898424671316 -0.003975216320991222 0
  endloop
endfacet
facet normal 0 0 1
  outer loop
    vertex -0.004129160136169416 0.005454796307775502 0
    vertex -0.003336123316524102 0.004359757035044578 0
    vertex -0.002508334395803664 0.005299791306441742 0
  endloop
endfacet
facet normal 0 0 1
  outer loop
    vertex 0.004005408211489265 0.003349017116258641 0
    vertex 0.003213844845358414 0.004350889271485078 0
    vertex 0.002501543066828304 0.003381772382957842 0
  endloop
endfacet
facet normal 0 0 1
  outer loop
    vertex -0.002490810229411565 0.00335461706007815 0
    vertex -0.003336123316524102 0.004359757035044578 0
    vertex -0.003917186945413541 0.003265724928761834 0
  endloop
endfacet
endsolid Created by Gmsh
